<svg width="59.000000" height="47.000000" viewBox="0 0 59 47" fill="none" xmlns="http://www.w3.org/2000/svg" xmlns:xlink="http://www.w3.org/1999/xlink">
	<desc>
			Created with Pixso.
	</desc>
	<defs/>
	<path id="Vector" d="M4.48 39.27C4.71 39.56 4.83 39.92 4.83 40.28C4.84 40.52 4.8 40.76 4.71 40.98C4.61 41.2 4.47 41.4 4.29 41.56C3.85 41.9 3.29 42.06 2.73 42.03L0 42.03L0 35.62L2.68 35.62C3.21 35.59 3.73 35.74 4.16 36.05C4.34 36.19 4.48 36.38 4.57 36.58C4.66 36.79 4.7 37.02 4.69 37.25C4.7 37.6 4.59 37.95 4.37 38.22C4.17 38.48 3.88 38.66 3.56 38.73C3.92 38.79 4.25 38.99 4.48 39.27ZM1.27 38.31L2.42 38.31C2.68 38.33 2.94 38.25 3.15 38.09C3.23 38.01 3.3 37.92 3.34 37.81C3.38 37.7 3.4 37.58 3.39 37.47C3.4 37.35 3.38 37.24 3.34 37.13C3.3 37.02 3.23 36.92 3.15 36.84C2.93 36.68 2.67 36.6 2.4 36.63L1.27 36.63L1.27 38.31ZM3.26 40.76C3.35 40.68 3.42 40.58 3.47 40.47C3.52 40.36 3.54 40.23 3.53 40.11C3.54 39.99 3.51 39.86 3.47 39.75C3.42 39.64 3.34 39.54 3.25 39.45C3.03 39.29 2.75 39.21 2.47 39.22L1.27 39.22L1.27 40.98L2.49 40.98C2.76 41 3.03 40.92 3.26 40.76Z" fill="#AFB1B8" fill-opacity="1.000000" fill-rule="nonzero"/>
	<path id="Vector" d="M9.97 42.03L8.47 39.52L7.91 39.52L7.91 42.03L6.63 42.03L6.63 35.62L9.06 35.62C9.67 35.58 10.28 35.77 10.75 36.17C11.09 36.51 11.3 36.97 11.33 37.46C11.36 37.94 11.22 38.43 10.93 38.82C10.63 39.16 10.22 39.39 9.77 39.47L11.36 42.03L9.97 42.03ZM7.91 38.65L8.96 38.65C9.69 38.65 10.06 38.33 10.06 37.68C10.07 37.55 10.05 37.42 10 37.29C9.95 37.17 9.88 37.06 9.79 36.96C9.56 36.77 9.26 36.67 8.96 36.7L7.9 36.7L7.91 38.65Z" fill="#AFB1B8" fill-opacity="1.000000" fill-rule="nonzero"/>
	<path id="Vector" d="M16.99 40.74L14.43 40.74L13.98 42.03L12.63 42.03L14.98 35.69L16.43 35.69L18.77 42.03L17.43 42.03L16.99 40.74ZM16.64 39.77L15.71 37.06L14.77 39.77L16.64 39.77Z" fill="#AFB1B8" fill-opacity="1.000000" fill-rule="nonzero"/>
	<path id="Vector" d="M25.77 42.03L24.5 42.03L21.64 37.67L21.64 42.03L20.37 42.03L20.37 35.62L21.64 35.62L24.5 40L24.5 35.62L25.77 35.62L25.77 42.03Z" fill="#AFB1B8" fill-opacity="1.000000" fill-rule="nonzero"/>
	<path id="Vector" d="M33.04 40.49C32.78 40.98 32.38 41.37 31.89 41.62C31.34 41.9 30.72 42.04 30.1 42.03L27.83 42.03L27.83 35.62L30.1 35.62C30.72 35.61 31.33 35.74 31.89 36.02C32.38 36.26 32.78 36.65 33.04 37.13C33.31 37.65 33.44 38.23 33.44 38.81C33.44 39.4 33.31 39.97 33.04 40.49ZM31.59 40.34C31.95 39.91 32.15 39.37 32.15 38.81C32.15 38.25 31.95 37.71 31.59 37.28C31.15 36.9 30.57 36.7 29.99 36.74L29.11 36.74L29.11 40.88L29.99 40.88C30.57 40.92 31.15 40.73 31.59 40.34Z" fill="#AFB1B8" fill-opacity="1.000000" fill-rule="nonzero"/>
	<path id="Vector" d="M17.78 0C17.78 0 34.24 6.23 33.89 15.25L33.89 30.52C33.89 30.52 17.45 24.28 17.79 15.25L17.78 0Z" fill="#AFB1B8" fill-opacity="1.000000" fill-rule="nonzero"/>
	<path id="Vector" d="M48.54 26.94C51.65 24.8 55.24 23.47 59 23.08L59 18.3C54.67 19.97 51.01 23.01 48.54 26.94Z" fill="#AFB1B8" fill-opacity="1.000000" fill-rule="nonzero"/>
	<path id="Vector" d="M46.68 28.38C49.22 23.24 53.63 19.28 59 17.3L59 3.53C59 3.53 35.57 12.41 36.06 25.26L36.06 46.99C36.06 46.99 37.11 46.6 38.75 45.85C38.75 45.16 38.75 44.46 38.82 43.75C39.31 37.79 42.13 32.26 46.68 28.38Z" fill="#AFB1B8" fill-opacity="1.000000" fill-rule="nonzero"/>
	<path id="Vector" d="M44.45 36.46C44.57 34.95 44.85 33.46 45.27 32.01C42.44 35.35 40.72 39.51 40.37 43.88C40.33 44.29 40.32 44.71 40.31 45.13C41.64 44.49 43.19 43.69 44.81 42.75C44.4 40.68 44.27 38.56 44.45 36.46Z" fill="#AFB1B8" fill-opacity="1.000000" fill-rule="nonzero"/>
	<path id="Vector" d="M45.38 36.53C45.22 38.44 45.32 40.35 45.67 42.23C52.07 38.39 59.26 32.45 58.99 25.26L58.99 24.64C54.41 25.15 50.13 27.16 46.81 30.35C46.03 32.33 45.55 34.41 45.38 36.53Z" fill="#AFB1B8" fill-opacity="1.000000" fill-rule="nonzero"/>
</svg>
