<svg width="45.000000" height="50.000000" viewBox="0 0 45 50" fill="none" xmlns="http://www.w3.org/2000/svg" xmlns:xlink="http://www.w3.org/1999/xlink">
	<desc>
			Created with Pixso.
	</desc>
	<defs/>
	<path id="Vector" d="M6 0L13.3 6.91L33.69 6.91L33.69 26.21L41 33.13L41 0L6 0Z" fill="#AFB1B8" fill-opacity="1.000000" fill-rule="nonzero"/>
	<path id="Vector" d="M0 6.62L0 38.81L34 38.81L34 26.01L13.52 6.63L0 6.62ZM27.52 34.1L5.38 34.1L5.38 12.45L6.94 12.45L6.94 32.63L27.52 32.63L27.52 34.1Z" fill="#AFB1B8" fill-opacity="1.000000" fill-rule="nonzero"/>
	<path id="YA &amp; CO" d="M15.76 45.45Q15.73 45.56 15.73 45.69Q15.73 45.96 15.84 46.16Q15.92 46.3 16.04 46.42Q16.07 46.44 16.11 46.47Q16.41 46.7 16.89 46.7Q17.28 46.7 17.6 46.54Q17.7 46.48 17.8 46.41L18 46.65L18.68 46.65L18.16 46.03Q18.47 45.61 18.47 44.95L17.95 44.95Q17.95 45.27 17.84 45.54Q17.82 45.57 17.81 45.61L17.12 44.8L17.36 44.62Q17.62 44.43 17.73 44.25Q17.78 44.17 17.81 44.08Q17.84 43.96 17.84 43.84Q17.84 43.67 17.78 43.53Q17.72 43.39 17.59 43.27Q17.54 43.22 17.47 43.18Q17.25 43.05 16.96 43.05Q16.6 43.05 16.36 43.22Q16.32 43.25 16.28 43.29Q16.22 43.34 16.17 43.41Q16.02 43.63 16.02 43.95Q16.02 44.12 16.1 44.3Q16.18 44.49 16.39 44.75Q16 45.03 15.86 45.24Q15.8 45.34 15.76 45.45ZM22.76 46.23Q22.99 45.94 23.03 45.49L22.42 45.49Q22.37 45.87 22.19 46.04Q22 46.2 21.64 46.2Q21.4 46.2 21.23 46.09Q21.12 46.02 21.03 45.9Q20.83 45.59 20.83 45.02L20.83 44.7Q20.83 44.13 21.05 43.84Q21.13 43.73 21.24 43.66Q21.42 43.55 21.67 43.55Q22.02 43.55 22.19 43.72Q22.37 43.89 22.42 44.27L23.03 44.27Q22.98 43.77 22.71 43.46Q22.67 43.41 22.62 43.37Q22.57 43.32 22.52 43.29Q22.18 43.05 21.67 43.05Q21.3 43.05 21.01 43.19Q20.95 43.22 20.9 43.25Q20.81 43.31 20.73 43.38Q20.52 43.57 20.39 43.84Q20.21 44.23 20.21 44.73L20.21 45.06Q20.22 45.55 20.39 45.92Q20.52 46.2 20.73 46.38Q20.8 46.44 20.89 46.5Q20.94 46.53 20.99 46.55Q21.28 46.7 21.64 46.7Q22.2 46.7 22.55 46.43Q22.58 46.4 22.61 46.38Q22.69 46.31 22.76 46.23ZM26.24 45.88Q26.42 45.49 26.42 44.96L26.42 44.77Q26.42 44.25 26.24 43.85Q26.1 43.55 25.86 43.36Q25.79 43.3 25.72 43.25Q25.65 43.21 25.58 43.18Q25.3 43.05 24.95 43.05Q24.6 43.05 24.32 43.18Q24.25 43.21 24.18 43.26Q24.11 43.3 24.05 43.35Q23.8 43.55 23.66 43.87Q23.47 44.26 23.47 44.78L23.47 44.98Q23.48 45.49 23.66 45.88Q23.8 46.18 24.02 46.37Q24.1 46.43 24.18 46.49Q24.26 46.54 24.35 46.58Q24.62 46.7 24.95 46.7Q25.3 46.7 25.59 46.56Q25.66 46.53 25.72 46.49Q25.8 46.44 25.87 46.38Q26.1 46.18 26.24 45.88ZM10.6 43.09L9.79 44.78L8.97 43.09L8.28 43.09L9.48 45.34L9.48 46.65L10.1 46.65L10.1 45.34L11.29 43.09L10.6 43.09ZM11.63 46.65L11.92 45.82L13.3 45.82L13.59 46.65L14.23 46.65L12.89 43.09L12.33 43.09L10.99 46.65L11.63 46.65ZM16.83 44.45Q16.58 44.14 16.58 43.93Q16.58 43.8 16.64 43.7Q16.66 43.67 16.68 43.64Q16.72 43.6 16.76 43.57Q16.84 43.52 16.96 43.52Q17.07 43.52 17.15 43.57Q17.19 43.59 17.22 43.62Q17.28 43.68 17.31 43.74Q17.33 43.8 17.33 43.86Q17.33 43.97 17.28 44.07Q17.24 44.14 17.18 44.2L17.1 44.26L16.83 44.45ZM25.58 43.87Q25.8 44.19 25.8 44.78L25.8 44.96Q25.8 45.56 25.58 45.88Q25.49 46.01 25.37 46.08Q25.19 46.19 24.95 46.19Q24.73 46.19 24.57 46.1Q24.42 46.02 24.32 45.87Q24.09 45.55 24.09 44.96L24.09 44.76Q24.1 44.19 24.32 43.87Q24.42 43.73 24.56 43.65Q24.73 43.56 24.95 43.56Q25.18 43.56 25.35 43.66Q25.48 43.74 25.58 43.87ZM12.61 43.85L13.12 45.32L12.09 45.32L12.61 43.85ZM17.07 46.21Q16.99 46.22 16.91 46.22Q16.69 46.22 16.54 46.12Q16.51 46.1 16.48 46.07Q16.43 46.02 16.39 45.96Q16.32 45.84 16.32 45.67Q16.32 45.61 16.33 45.56Q16.38 45.34 16.61 45.16L16.69 45.11L17.47 46.02Q17.28 46.17 17.07 46.21Z" fill="#AFB1B8" fill-opacity="1.000000" fill-rule="evenodd"/>
</svg>
