<svg width="80.000000" height="43.000000" viewBox="0 0 80 43" fill="none" xmlns="http://www.w3.org/2000/svg" xmlns:xlink="http://www.w3.org/1999/xlink">
	<desc>
			Created with Pixso.
	</desc>
	<defs/>
	<path id="Vector" d="M12.39 12.83L12.4 12.83C14.66 12.83 16.49 14.61 16.49 16.82L16.49 16.82C16.49 19.02 14.66 20.81 12.4 20.81L12.39 20.81C10.13 20.81 8.3 19.02 8.3 16.82L8.3 16.82C8.3 14.61 10.13 12.83 12.39 12.83Z" fill="#2196F3" fill-opacity="1.000000" fill-rule="evenodd"/>
	<path id="Vector" d="M42.63 11.55C42.63 8.49 41.37 5.55 39.15 3.39C36.93 1.22 33.92 0 30.78 0L30.78 0C27.63 0 24.62 1.22 22.4 3.39C20.18 5.55 18.92 8.49 18.92 11.55L18.92 28.44C18.92 28.44 42.63 25.86 42.63 11.55L42.63 11.55Z" fill="#2196F3" fill-opacity="1.000000" fill-rule="nonzero"/>
	<path id="Vector" d="M0 33.98C0 36.11 0.87 38.15 2.42 39.66C3.96 41.16 6.06 42.01 8.24 42.02C10.43 42.01 12.52 41.16 14.07 39.66C15.62 38.15 16.49 36.11 16.49 33.98L16.49 22.23C16.49 22.23 0 24.02 0 33.98ZM8.24 36.08C7.82 36.08 7.4 35.96 7.04 35.73C6.69 35.5 6.41 35.17 6.25 34.78C6.09 34.4 6.04 33.97 6.13 33.57C6.21 33.16 6.41 32.78 6.72 32.49C7.02 32.19 7.4 31.99 7.82 31.91C8.24 31.83 8.68 31.87 9.07 32.03C9.47 32.19 9.8 32.46 10.04 32.81C10.28 33.15 10.4 33.56 10.4 33.98C10.41 34.25 10.35 34.53 10.24 34.79C10.13 35.04 9.98 35.27 9.77 35.47C9.57 35.67 9.34 35.82 9.07 35.93C8.81 36.04 8.53 36.09 8.24 36.09L8.24 36.08Z" fill="#2196F3" fill-opacity="1.000000" fill-rule="nonzero"/>
	<path id="FOSTER PETERS" d="M29.09 35.59Q29.31 35.11 29.31 34.48L29.31 34.29Q29.31 33.67 29.08 33.19Q28.91 32.82 28.63 32.59Q28.54 32.51 28.44 32.45Q28.35 32.4 28.26 32.36Q27.92 32.2 27.49 32.2Q27.07 32.2 26.72 32.36Q26.63 32.4 26.54 32.45Q26.44 32.51 26.35 32.59Q26.07 32.82 25.9 33.19Q25.68 33.67 25.68 34.3L25.68 34.51Q25.68 35.12 25.91 35.6Q26.07 35.94 26.34 36.17Q26.44 36.25 26.55 36.32Q26.64 36.38 26.74 36.42Q27.09 36.58 27.5 36.58Q27.93 36.58 28.28 36.41Q28.37 36.37 28.45 36.32Q28.57 36.25 28.67 36.16Q28.93 35.93 29.09 35.59ZM32.08 35.13Q32.16 35.24 32.16 35.4Q32.16 35.53 32.1 35.63Q32.06 35.7 31.98 35.76Q31.81 35.88 31.49 35.88Q31 35.88 30.79 35.64Q30.65 35.47 30.65 35.18L29.77 35.18Q29.77 35.49 29.89 35.74Q29.93 35.83 29.98 35.9Q29.99 35.91 29.99 35.92Q30.2 36.22 30.6 36.4Q31 36.58 31.49 36.58Q32.2 36.58 32.62 36.26Q32.8 36.13 32.91 35.95Q33.04 35.71 33.04 35.39Q33.04 35.11 32.93 34.88Q32.85 34.71 32.7 34.56Q32.36 34.23 31.61 34Q31.2 33.88 30.99 33.74Q30.84 33.64 30.8 33.51Q30.78 33.45 30.78 33.39Q30.78 33.28 30.82 33.19Q30.87 33.1 30.96 33.03Q31.14 32.9 31.46 32.9Q31.79 32.9 31.98 33.06Q32.02 33.1 32.06 33.15Q32.16 33.29 32.16 33.51L33.04 33.51Q33.04 33.25 32.95 33.03Q32.91 32.92 32.84 32.83Q32.8 32.76 32.75 32.7Q32.57 32.49 32.29 32.36Q31.93 32.2 31.47 32.2Q31.02 32.2 30.65 32.35Q30.29 32.5 30.1 32.77Q30.02 32.88 29.97 33Q29.9 33.18 29.9 33.39Q29.9 33.59 29.97 33.76Q30.12 34.17 30.63 34.45Q30.89 34.59 31.35 34.74Q31.81 34.88 31.98 35.02Q32.04 35.06 32.08 35.13ZM66.4 35.13Q66.48 35.24 66.48 35.4Q66.48 35.53 66.42 35.63Q66.38 35.7 66.3 35.76Q66.13 35.88 65.81 35.88Q65.32 35.88 65.11 35.64Q64.97 35.47 64.97 35.18L64.09 35.18Q64.09 35.49 64.21 35.74Q64.25 35.83 64.3 35.9Q64.3 35.91 64.31 35.92Q64.52 36.22 64.92 36.4Q65.32 36.58 65.81 36.58Q66.52 36.58 66.94 36.26Q67.12 36.13 67.22 35.95Q67.36 35.71 67.36 35.39Q67.36 35.11 67.25 34.88Q67.17 34.71 67.02 34.56Q66.67 34.23 65.92 34Q65.52 33.88 65.31 33.74Q65.16 33.64 65.12 33.51Q65.1 33.45 65.1 33.39Q65.1 33.28 65.14 33.19Q65.19 33.1 65.28 33.03Q65.46 32.9 65.78 32.9Q66.11 32.9 66.3 33.06Q66.34 33.1 66.38 33.15Q66.48 33.29 66.48 33.51L67.36 33.51Q67.36 33.25 67.27 33.03Q67.22 32.92 67.16 32.83Q67.12 32.76 67.07 32.7Q66.89 32.49 66.61 32.36Q66.25 32.2 65.79 32.2Q65.34 32.2 64.97 32.35Q64.61 32.5 64.41 32.77Q64.33 32.88 64.29 33Q64.22 33.18 64.22 33.39Q64.22 33.59 64.28 33.76Q64.44 34.17 64.95 34.45Q65.21 34.59 65.67 34.74Q66.13 34.88 66.3 35.02Q66.36 35.06 66.4 35.13ZM23.4 34.78L25.08 34.78L25.08 34.07L23.4 34.07L23.4 32.97L25.3 32.97L25.3 32.25L22.52 32.25L22.52 36.52L23.4 36.52L23.4 34.78ZM35.54 32.97L36.85 32.97L36.85 32.25L33.37 32.25L33.37 32.97L34.66 32.97L34.66 36.52L35.54 36.52L35.54 32.97ZM38.23 34.67L39.91 34.67L39.91 33.98L38.23 33.98L38.23 32.97L40.2 32.97L40.2 32.25L37.35 32.25L37.35 36.52L40.21 36.52L40.21 35.81L38.23 35.81L38.23 34.67ZM41.6 34.96L42.3 34.96L43.1 36.52L44.05 36.52L44.05 36.48L43.12 34.74Q43.51 34.56 43.7 34.27Q43.88 33.98 43.88 33.54Q43.88 33.11 43.68 32.82Q43.6 32.69 43.47 32.59Q43.06 32.25 42.31 32.25L40.72 32.25L40.72 36.52L41.6 36.52L41.6 34.96ZM46.92 36.52L46.92 35.02L47.7 35.02Q48.45 35.02 48.88 34.65Q49.03 34.53 49.13 34.37Q49.31 34.08 49.31 33.67Q49.31 33.34 49.19 33.07Q49.16 33 49.12 32.93Q49.06 32.83 48.99 32.75Q48.81 32.55 48.56 32.43Q48.19 32.25 47.71 32.25L46.05 32.25L46.05 36.52L46.92 36.52ZM50.8 34.67L52.48 34.67L52.48 33.98L50.8 33.98L50.8 32.97L52.77 32.97L52.77 32.25L49.92 32.25L49.92 36.52L52.78 36.52L52.78 35.81L50.8 35.81L50.8 34.67ZM55.25 32.97L56.56 32.97L56.56 32.25L53.09 32.25L53.09 32.97L54.38 32.97L54.38 36.52L55.25 36.52L55.25 32.97ZM57.94 34.67L59.63 34.67L59.63 33.98L57.94 33.98L57.94 32.97L59.92 32.97L59.92 32.25L57.06 32.25L57.06 36.52L59.92 36.52L59.92 35.81L57.94 35.81L57.94 34.67ZM61.32 34.96L62.02 34.96L62.82 36.52L63.76 36.52L63.76 36.48L62.84 34.74Q63.22 34.56 63.41 34.27Q63.6 33.98 63.6 33.54Q63.6 33.11 63.4 32.82Q63.31 32.69 63.19 32.59Q62.78 32.25 62.02 32.25L60.44 32.25L60.44 36.52L61.32 36.52L61.32 34.96ZM28.18 33.27Q28.42 33.62 28.42 34.29L28.42 34.5Q28.42 35.16 28.18 35.51Q28.07 35.66 27.93 35.75Q27.75 35.86 27.5 35.86Q27.25 35.86 27.07 35.75Q26.92 35.66 26.81 35.5Q26.57 35.14 26.57 34.48L26.57 34.28Q26.57 33.61 26.81 33.27Q26.92 33.11 27.06 33.03Q27.24 32.92 27.49 32.92Q27.74 32.92 27.93 33.03Q28.07 33.12 28.18 33.27ZM42.31 34.25L41.6 34.25L41.6 32.97L42.31 32.97Q42.66 32.97 42.83 33.14Q42.86 33.17 42.88 33.19Q43.01 33.36 43.01 33.61Q43.01 33.84 42.9 33.99Q42.87 34.04 42.82 34.08Q42.82 34.08 42.81 34.09Q42.63 34.25 42.31 34.25ZM47.71 34.3L46.92 34.3L46.92 32.97L47.73 32.97Q47.99 32.97 48.17 33.1Q48.21 33.13 48.24 33.16Q48.28 33.21 48.31 33.26Q48.42 33.43 48.42 33.67Q48.42 33.92 48.31 34.07Q48.28 34.11 48.24 34.14Q48.06 34.3 47.71 34.3ZM62.02 34.25L61.32 34.25L61.32 32.97L62.02 32.97Q62.38 32.97 62.55 33.14Q62.57 33.17 62.6 33.19Q62.72 33.36 62.72 33.61Q62.72 33.84 62.61 33.99Q62.58 34.04 62.54 34.08Q62.53 34.08 62.53 34.09Q62.35 34.25 62.02 34.25Z" fill="#2196F3" fill-opacity="1.000000" fill-rule="evenodd"/>
</svg>
