<svg width="106.000000" height="60.000000" viewBox="0 0 106 60" fill="none" xmlns="http://www.w3.org/2000/svg" xmlns:xlink="http://www.w3.org/1999/xlink">
	<desc>
			Created with Pixso.
	</desc>
	<defs>
		<clipPath id="clip11_3020">
			<rect id="Logo " width="106.000000" height="60.000000" fill="white" fill-opacity="0"/>
		</clipPath>
	</defs>
	<g clip-path="url(#clip11_3020)">
		<path id="Union" d="M38 7L45.0078 13.6342L32 13.6265L32 45.8137L66 45.8137L66 33.5071L73 40.1338L73 7L38 7ZM65.6924 13.918L65.6924 32.7284L45.8226 13.918L65.6924 13.918ZM59.5232 41.1055L37.3801 41.1055L37.3801 19.4579L38.9453 19.4579L38.9453 39.6396L59.5232 39.6396L59.5232 41.1055ZM47.8701 51.9517C47.7806 52.0884 47.7358 52.2389 47.7358 52.4033C47.7358 52.7028 47.8408 52.9462 48.0508 53.1333C48.2623 53.3188 48.5439 53.4116 48.8955 53.4116Q49.2908 53.4116 49.6038 53.2511Q49.7084 53.1975 49.8037 53.126L50.0039 53.3628L50.6924 53.3628L50.1699 52.7451Q50.4775 52.3252 50.4775 51.6685L49.9624 51.6685C49.9624 51.9077 49.9127 52.125 49.8135 52.3203L49.1274 51.5098L49.3691 51.334C49.54 51.2103 49.663 51.0865 49.7378 50.9629C49.8126 50.8375 49.8501 50.7008 49.8501 50.5527Q49.8501 50.3844 49.788 50.2435Q49.7257 50.1024 49.6011 49.9888C49.4366 49.8358 49.2251 49.7593 48.9663 49.7593C48.6798 49.7593 48.452 49.8407 48.2827 50.0034C48.1134 50.1646 48.0288 50.3843 48.0288 50.6626C48.0288 50.7765 48.0557 50.8945 48.1094 51.0166C48.1647 51.1387 48.2616 51.2867 48.3999 51.4609C48.1362 51.6498 47.9596 51.8134 47.8701 51.9517ZM54.623 53.0942C54.8672 52.881 55.0072 52.5848 55.043 52.2056L54.4277 52.2056C54.3951 52.4595 54.3179 52.641 54.1958 52.75C54.0737 52.859 53.8915 52.9136 53.6489 52.9136C53.3837 52.9136 53.1818 52.8126 53.0435 52.6108Q52.8384 52.3081 52.8384 51.7319L52.8384 51.417C52.8417 51.0377 52.9149 50.7505 53.0581 50.5552C53.203 50.3583 53.4097 50.2598 53.6782 50.2598C53.9093 50.2598 54.0844 50.3168 54.2031 50.4307C54.3236 50.543 54.3984 50.7269 54.4277 50.9824L55.043 50.9824C55.0039 50.5934 54.8647 50.2924 54.6255 50.0791C54.3862 49.8658 54.0704 49.7593 53.6782 49.7593C53.3868 49.7593 53.1298 49.8285 52.9067 49.9668C52.6854 50.1051 52.5153 50.3021 52.3965 50.5576C52.2777 50.8131 52.2183 51.1085 52.2183 51.4438L52.2183 51.7759C52.2231 52.103 52.2842 52.3903 52.4014 52.6377C52.5186 52.8851 52.6846 53.0763 52.8994 53.2114C53.1158 53.3448 53.3657 53.4116 53.6489 53.4116C54.0542 53.4116 54.3789 53.3058 54.623 53.0942ZM58.2534 52.5962C58.3739 52.3325 58.4341 52.0265 58.4341 51.6782L58.4341 51.4805C58.4325 51.1338 58.3706 50.8302 58.2485 50.5698Q58.1074 50.2668 57.8749 50.0741Q57.8058 50.0168 57.7285 49.9692C57.5055 49.8292 57.2491 49.7593 56.9595 49.7593C56.6698 49.7593 56.4126 49.8301 56.188 49.9717Q56.1278 50.0094 56.0725 50.0532Q55.8202 50.2532 55.668 50.5796C55.5459 50.8448 55.4849 51.1509 55.4849 51.4976L55.4849 51.6978C55.4865 52.038 55.5483 52.3383 55.6704 52.5986C55.7941 52.859 55.9683 53.0601 56.1929 53.2017C56.4191 53.3417 56.6763 53.4116 56.9644 53.4116C57.2557 53.4116 57.5128 53.3417 57.7358 53.2017C57.9604 53.0601 58.1329 52.8583 58.2534 52.5962ZM42.6089 49.8081L41.791 51.4927L40.9731 49.8081L40.2871 49.8081L41.481 52.0542L41.481 53.3628L42.1011 53.3628L42.1011 52.0542L43.2925 49.8081L42.6089 49.8081ZM43.6367 53.3628L43.9248 52.5352L45.3018 52.5352L45.5923 53.3628L46.2368 53.3628L44.8916 49.8081L44.3374 49.8081L42.9946 53.3628L43.6367 53.3628ZM48.8369 51.1631C48.6693 50.9564 48.5854 50.7847 48.5854 50.6479C48.5854 50.5292 48.6196 50.4307 48.688 50.3525C48.7563 50.2744 48.8483 50.2354 48.9639 50.2354C49.0713 50.2354 49.16 50.2687 49.23 50.3354C49.2999 50.4005 49.335 50.4795 49.335 50.5723C49.335 50.7123 49.2845 50.827 49.1836 50.9165L49.1079 50.9775L48.8369 51.1631ZM57.5918 50.5869C57.7416 50.7969 57.8164 51.0988 57.8164 51.4927L57.8164 51.6782C57.8164 52.0786 57.7423 52.3829 57.5942 52.5913C57.4478 52.7997 57.2378 52.9038 56.9644 52.9038C56.6942 52.9038 56.4825 52.7972 56.3296 52.584C56.1782 52.3707 56.1025 52.0688 56.1025 51.6782L56.1025 51.4731C56.1058 51.0907 56.1823 50.7953 56.332 50.5869C56.4834 50.377 56.6925 50.272 56.9595 50.272C57.2329 50.272 57.4437 50.377 57.5918 50.5869ZM44.6133 50.5625L45.1284 52.0371L44.0981 52.0371L44.6133 50.5625ZM49.4741 52.7378C49.2999 52.8712 49.1128 52.938 48.9126 52.938Q48.6964 52.938 48.5511 52.8365Q48.5176 52.8131 48.4878 52.7842C48.382 52.6816 48.3291 52.5482 48.3291 52.3838C48.3291 52.1934 48.4268 52.024 48.6221 51.876L48.6978 51.8223L49.4741 52.7378Z" clip-rule="evenodd" fill="#AFB1B8" fill-opacity="1.000000" fill-rule="evenodd"/>
	</g>
</svg>
