<svg width="106.000000" height="60.000000" viewBox="0 0 106 60" fill="none" xmlns="http://www.w3.org/2000/svg" xmlns:xlink="http://www.w3.org/1999/xlink">
	<desc>
			Created with Pixso.
	</desc>
	<defs>
		<clipPath id="clip11_3099">
			<rect id="Logo" width="106.000000" height="60.000000" fill="white" fill-opacity="0"/>
		</clipPath>
	</defs>
	<rect id="Logo" width="106.000000" height="60.000000" fill="#2196F3" fill-opacity="0"/>
	<g clip-path="url(#clip11_3099)">
		<path id="Vector" d="M53.425 27.4081C52.9819 26.8182 52.7699 26.1212 52.8203 25.4196L52.8203 22.5363C52.8203 21.6525 53.0207 20.9808 53.4216 20.5214C53.8224 20.0618 54.511 19.833 55.4871 19.835C56.4044 19.835 57.0555 20.0305 57.4405 20.4216C57.8605 20.9205 58.0648 21.5308 58.018 22.1462L58.018 22.8237L56.3772 22.8237L56.3772 22.1375C56.383 21.9127 56.3671 21.6881 56.3296 21.4657C56.306 21.3137 56.2234 21.1731 56.0952 21.0669C55.9267 20.9524 55.7144 20.8969 55.5007 20.9114C55.2759 20.897 55.0529 20.9556 54.8756 21.0757C54.7327 21.1934 54.6374 21.3475 54.6038 21.5156C54.5567 21.751 54.5351 21.9895 54.5393 22.2284L54.5393 25.7274C54.5134 26.0651 54.5858 26.4028 54.7499 26.7101C54.8315 26.814 54.9449 26.8964 55.0774 26.9481C55.2099 26.9999 55.3564 27.019 55.5007 27.0033C55.7109 27.0183 55.9195 26.9614 56.0816 26.845C56.2153 26.7305 56.3013 26.5809 56.3262 26.4197C56.3645 26.1875 56.3816 25.9531 56.3772 25.7186L56.3772 25.0089L58.018 25.0089L58.018 25.6571C58.0641 26.2986 57.8648 26.9355 57.4507 27.4697C57.0736 27.8979 56.4315 28.1121 55.4871 28.1121C54.5427 28.1121 53.8293 27.8833 53.425 27.4081Z" fill="#AFB1B8" fill-opacity="1.000000" fill-rule="nonzero"/>
		<path id="Vector" d="M60.2569 27.4375C59.8425 26.9886 59.6353 26.3346 59.6353 25.4694L59.6353 22.4366C59.6353 21.5802 59.8425 20.9319 60.2569 20.4919C60.6714 20.052 61.3644 19.833 62.336 19.835C63.3008 19.835 63.9904 20.054 64.4049 20.4919C64.8193 20.9319 65.03 21.5802 65.03 22.4366L65.03 25.4694C65.03 26.3258 64.8193 26.9828 64.3981 27.4346C63.9768 27.8862 63.2906 28.1121 62.336 28.1121C61.3814 28.1121 60.6748 27.8833 60.2569 27.4375ZM63.1004 26.7101C63.2488 26.429 63.3164 26.1211 63.2974 25.8125L63.2974 22.0992C63.3165 21.7968 63.25 21.4948 63.1038 21.2194C63.0205 21.1133 62.9044 21.0294 62.7686 20.9775C62.6329 20.9258 62.483 20.9078 62.336 20.926C62.1886 20.9083 62.0384 20.9264 61.9022 20.9781C61.766 21.03 61.6492 21.1135 61.5648 21.2194C61.4155 21.494 61.3477 21.7964 61.3678 22.0992L61.3678 25.8301C61.3472 26.1387 61.4149 26.447 61.5648 26.7277C61.6605 26.8223 61.7785 26.8981 61.9109 26.9501C62.0434 27.002 62.1872 27.0289 62.3326 27.0289C62.4781 27.0289 62.6219 27.002 62.7543 26.9501C62.8867 26.8981 63.0047 26.8223 63.1004 26.7277L63.1004 26.7101Z" fill="#AFB1B8" fill-opacity="1.000000" fill-rule="nonzero"/>
		<path id="Vector" d="M67.0035 19.9236L68.7701 19.9236L70.0984 25.5192L71.4573 19.9236L73.1763 19.9236L73.3496 28.0002L72.079 28.0002L71.9431 22.3871L70.6318 28.0002L69.6126 28.0002L68.2537 22.3666L68.128 28.0002L66.8439 28.0002L67.0035 19.9236Z" fill="#AFB1B8" fill-opacity="1.000000" fill-rule="nonzero"/>
		<path id="Vector" d="M75.3303 19.9236L78.082 19.9236C79.6673 19.9236 80.46 20.688 80.46 22.2169C80.46 23.6814 79.6254 24.4126 77.9563 24.4106L77.0186 24.4106L77.0186 28.0002L75.3201 28.0002L75.3303 19.9236ZM77.6811 23.3754C77.8489 23.3938 78.0194 23.3805 78.1807 23.3364C78.342 23.2924 78.4903 23.2186 78.6153 23.1202C78.8101 22.8474 78.896 22.5271 78.8599 22.2081C78.8688 21.9618 78.8414 21.7155 78.7784 21.475C78.7542 21.3947 78.7117 21.3193 78.6533 21.2534C78.595 21.1874 78.522 21.1322 78.4387 21.0908C78.2029 20.9932 77.9422 20.9487 77.6811 20.9618L77.0221 20.9618L77.0221 23.3754L77.6811 23.3754Z" fill="#AFB1B8" fill-opacity="1.000000" fill-rule="nonzero"/>
		<path id="Vector" d="M82.9095 19.9236L84.7337 19.9236L86.6056 28.0002L85.0225 28.0002L84.6522 26.1381L83.0249 26.1381L82.6445 28.0002L81.0376 28.0002L82.9095 19.9236ZM84.4688 25.2025L83.8335 21.8123L83.1982 25.2025L84.4688 25.2025Z" fill="#AFB1B8" fill-opacity="1.000000" fill-rule="nonzero"/>
		<path id="Vector" d="M88.1173 19.9236L89.3063 19.9236L91.5825 24.5309L91.5825 19.9236L92.9923 19.9236L92.9923 28.0002L91.8611 28.0002L89.5713 23.1907L89.5713 28.0002L88.1139 28.0002L88.1173 19.9236Z" fill="#AFB1B8" fill-opacity="1.000000" fill-rule="nonzero"/>
		<path id="Vector" d="M96.2945 24.9207L94.4022 19.9348L95.9955 19.9348L97.1505 23.1375L98.2343 19.9348L99.7936 19.9348L97.9251 24.9207L97.9251 28.0002L96.2945 28.0002L96.2945 24.9207Z" fill="#AFB1B8" fill-opacity="1.000000" fill-rule="nonzero"/>
		<path id="Vector" d="M56.0477 31.5315L56.0477 31.9539L54.6617 31.9539L54.6617 35.2358L54.0807 35.2358L54.0807 31.9539L52.6879 31.9539L52.6879 31.5315L56.0477 31.5315Z" fill="#AFB1B8" fill-opacity="1.000000" fill-rule="nonzero"/>
		<path id="Vector" d="M60.3927 35.2361L59.9442 35.2361C59.8987 35.2385 59.8538 35.226 59.8185 35.2009C59.7846 35.1793 59.7587 35.1498 59.7438 35.1158L59.3429 34.236L57.4201 34.236L57.0192 35.1158C57.0078 35.1526 56.9869 35.1868 56.958 35.2156C56.9225 35.2401 56.8778 35.2526 56.8324 35.2507L56.3839 35.2507L58.0826 31.5466L58.6737 31.5466L60.3927 35.2361ZM57.5797 33.8606L59.1833 33.8606L58.5038 32.3531C58.4537 32.2391 58.4117 32.1226 58.3781 32.0042C58.3543 32.0746 58.334 32.142 58.3136 32.2007L58.2524 32.3561L57.5797 33.8606Z" fill="#AFB1B8" fill-opacity="1.000000" fill-rule="nonzero"/>
		<path id="Vector" d="M63.3212 34.8723C63.4275 34.8772 63.5341 34.8772 63.6405 34.8723C63.7323 34.8641 63.8232 34.8495 63.9123 34.8284C63.9955 34.8108 64.0772 34.7882 64.1569 34.7609C64.2316 34.7345 64.3064 34.7023 64.3845 34.6699L64.3845 33.8369L63.705 33.8369C63.6882 33.8378 63.6714 33.8356 63.6556 33.8306C63.6399 33.8254 63.6255 33.8176 63.6133 33.8076C63.6022 33.7993 63.5933 33.7889 63.5875 33.7772C63.5816 33.7655 63.5788 33.7528 63.5793 33.7401L63.5793 33.4556L64.8975 33.4556L64.8975 34.8752C64.7899 34.9418 64.6763 35.0006 64.5577 35.0513C64.4366 35.1029 64.3104 35.1451 64.1807 35.1774C64.0417 35.2126 63.8997 35.2382 63.756 35.2537C63.5913 35.2694 63.4257 35.2773 63.26 35.2771C62.967 35.2793 62.6763 35.2324 62.4039 35.1393C62.1496 35.051 61.9185 34.9193 61.7245 34.7521C61.5353 34.5833 61.3864 34.3839 61.2862 34.1654C61.1791 33.9199 61.1262 33.6593 61.1299 33.397C61.1264 33.1329 61.1782 32.8706 61.2828 32.6226C61.3806 32.4031 61.5298 32.2034 61.7211 32.036C61.9149 31.8693 62.1461 31.7385 62.4005 31.6517C62.6914 31.5573 63.0002 31.5105 63.311 31.5138C63.4691 31.5137 63.627 31.5244 63.7832 31.5461C63.9213 31.5656 64.0567 31.5969 64.1874 31.64C64.3063 31.6785 64.4202 31.7277 64.5272 31.7866C64.6313 31.8445 64.7301 31.9092 64.8227 31.9802L64.6597 32.209C64.6469 32.2299 64.6279 32.2474 64.6046 32.2599C64.5813 32.2722 64.5545 32.2789 64.5272 32.2794C64.4896 32.2783 64.4531 32.2682 64.4219 32.2501C64.3709 32.2266 64.3166 32.1973 64.2554 32.1621C64.1832 32.1229 64.107 32.0896 64.0278 32.0624C63.9265 32.0273 63.822 31.9998 63.7152 31.9802C63.5729 31.9576 63.4285 31.9468 63.2838 31.948C63.0597 31.9458 62.8371 31.9807 62.6281 32.0507C62.4391 32.1161 62.2687 32.2162 62.1287 32.344C61.9879 32.4771 61.8804 32.6339 61.8128 32.8044C61.661 33.2057 61.661 33.6382 61.8128 34.0393C61.8871 34.2135 62.0029 34.3724 62.1525 34.5057C62.2918 34.6328 62.4609 34.7328 62.6485 34.7991C62.8645 34.863 63.0935 34.8881 63.3212 34.8723Z" fill="#AFB1B8" fill-opacity="1.000000" fill-rule="nonzero"/>
		<path id="Vector" d="M68.7363 34.8135L70.5912 34.8135L70.5912 35.2358L68.1689 35.2358L68.1689 31.5315L68.7499 31.5315L68.7363 34.8135Z" fill="#AFB1B8" fill-opacity="1.000000" fill-rule="nonzero"/>
		<path id="Vector" d="M72.5208 35.2358L71.9398 35.2358L71.9398 31.5315L72.5208 31.5315L72.5208 35.2358Z" fill="#AFB1B8" fill-opacity="1.000000" fill-rule="nonzero"/>
		<path id="Vector" d="M74.6814 31.5493C74.7159 31.5664 74.746 31.5894 74.7697 31.6168L77.2531 34.4092C77.2497 34.3652 77.2497 34.321 77.2531 34.2771C77.2531 34.2361 77.2531 34.1951 77.2531 34.1569L77.2531 31.5171L77.7592 31.5171L77.7592 35.2363L77.4671 35.2363C77.4238 35.2394 77.3804 35.2322 77.3414 35.2157C77.3061 35.1973 77.275 35.1735 77.2496 35.1454L74.7697 32.356C74.7697 32.3999 74.7697 32.441 74.7697 32.4821C74.7697 32.5232 74.7697 32.5613 74.7697 32.5964L74.7697 35.2363L74.2839 35.2363L74.2839 31.5317L74.5863 31.5317C74.6191 31.5319 74.6515 31.5378 74.6814 31.5493Z" fill="#AFB1B8" fill-opacity="1.000000" fill-rule="nonzero"/>
		<path id="Vector" d="M82.0364 31.5315L82.0364 31.9392L79.9777 31.9392L79.9777 33.1622L81.6457 33.1622L81.6457 33.5553L79.9777 33.5553L79.9777 34.8193L82.0364 34.8193L82.0364 35.2271L79.3798 35.2271L79.3798 31.5315L82.0364 31.5315Z" fill="#AFB1B8" fill-opacity="1.000000" fill-rule="nonzero"/>
		<path id="Vector" d="M21.1618 8.6554L46.9568 14.9786L46.9568 37.1367L21.1618 30.8163L21.1618 8.6554ZM19.5073 6.7666L19.5073 31.8927L48.6079 39.0284L48.6079 13.9053L19.5073 6.7666Z" fill="#AFB1B8" fill-opacity="1.000000" fill-rule="nonzero"/>
		<path id="Vector" d="M35.1039 50.6921L6 43.5504L6 18.427L35.1039 25.5658L35.1039 50.6921Z" fill="#AFB1B8" fill-opacity="1.000000" fill-rule="nonzero"/>
		<path id="Vector" d="M19.9897 8.37085L45.4484 14.6149L34.6215 23.9647L9.15939 17.7178L19.9897 8.37085ZM19.5073 6.7666L6 18.4276L35.1039 25.566L48.6078 13.9052L19.5073 6.7666Z" fill="#AFB1B8" fill-opacity="1.000000" fill-rule="nonzero"/>
		<path id="Vector" d="M36.7415 49.2787L48.6078 39.0314L36.7415 36.1191L36.7415 49.2787Z" fill="#AFB1B8" fill-opacity="1.000000" fill-rule="nonzero"/>
	</g>
</svg>
