<svg width="106.000000" height="60.000000" viewBox="0 0 106 60" fill="none" xmlns="http://www.w3.org/2000/svg" xmlns:xlink="http://www.w3.org/1999/xlink">
	<desc>
			Created with Pixso.
	</desc>
	<defs>
		<clipPath id="clip11_3085">
			<rect id="Logo" width="106.000000" height="60.000000" fill="white" fill-opacity="0"/>
		</clipPath>
	</defs>
	<rect id="Logo" width="106.000000" height="60.000000" fill="#2196F3" fill-opacity="0"/>
	<g clip-path="url(#clip11_3085)">
		<path id="Vector" d="M26.7569 44.7351C27.0005 45.0112 27.1304 45.3571 27.1236 45.712C27.136 45.9436 27.0914 46.1748 26.993 46.3884C26.8947 46.6021 26.7451 46.7926 26.5554 46.9462C26.082 47.2734 25.4955 47.4335 24.9037 47.3969L22 47.3969L22 41.2053L24.8442 41.2053C25.4056 41.1711 25.9626 41.3165 26.4199 41.6167C26.6036 41.7574 26.7491 41.9354 26.8448 42.1365C26.9406 42.3374 26.9839 42.5562 26.9716 42.7751C26.9883 43.1167 26.8712 43.4524 26.6413 43.7218C26.4206 43.9679 26.1156 44.1384 25.7758 44.2058C26.161 44.2701 26.5087 44.4578 26.7569 44.7351ZM23.3511 43.8005L24.5668 43.8005C24.843 43.8192 25.1174 43.7462 25.3397 43.5948C25.431 43.519 25.502 43.4252 25.5473 43.3202C25.5925 43.2153 25.6108 43.1023 25.6007 42.9899C25.6093 42.8779 25.5906 42.7655 25.5461 42.6609C25.5015 42.5563 25.4322 42.462 25.343 42.385C25.1141 42.2294 24.8312 42.1552 24.5469 42.1763L23.3511 42.1763L23.3511 43.8005ZM25.4587 46.1748C25.5562 46.0973 25.6329 46.0002 25.6828 45.8911C25.7326 45.782 25.7543 45.6638 25.746 45.5458C25.7535 45.4263 25.7308 45.3069 25.6799 45.1968C25.6289 45.0867 25.551 44.9886 25.452 44.9105C25.2142 44.7491 24.9217 44.6698 24.6262 44.6868L23.3511 44.6868L23.3511 46.3896L24.6427 46.3896C24.9335 46.4049 25.2213 46.3292 25.4587 46.1748Z" fill="#AFB1B8" fill-opacity="1.000000" fill-rule="nonzero"/>
		<path id="Vector" d="M32.5709 47.3969L30.9886 44.9771L30.394 44.9771L30.394 47.3969L29.033 47.3969L29.033 41.2053L31.6096 41.2053C32.2591 41.1638 32.9012 41.3523 33.4034 41.7317C33.7635 42.0676 33.9808 42.5105 34.0159 42.9802C34.051 43.45 33.9017 43.9156 33.595 44.2936C33.2771 44.627 32.8428 44.8494 32.3661 44.9226L34.0508 47.3969L32.5709 47.3969ZM30.394 44.1332L31.5072 44.1332C32.2802 44.1332 32.6667 43.8207 32.6667 43.1956C32.6746 43.0679 32.6534 42.9402 32.6045 42.8204C32.5556 42.7007 32.48 42.5916 32.3826 42.4999C32.1383 42.3138 31.8237 42.2236 31.5072 42.2489L30.3807 42.2489L30.394 44.1332Z" fill="#AFB1B8" fill-opacity="1.000000" fill-rule="nonzero"/>
		<path id="Vector" d="M40.0101 46.1506L37.298 46.1506L36.819 47.3969L35.392 47.3969L37.8828 41.2749L39.4254 41.2749L41.9062 47.3969L40.4792 47.3969L40.0101 46.1506ZM39.6467 45.213L38.6557 42.5997L37.6647 45.213L39.6467 45.213Z" fill="#AFB1B8" fill-opacity="1.000000" fill-rule="nonzero"/>
		<path id="Vector" d="M49.3223 47.3967L47.9713 47.3967L44.942 43.1865L44.942 47.3967L43.5942 47.3967L43.5942 41.2053L44.942 41.2053L47.9713 45.4398L47.9713 41.2053L49.3223 41.2053L49.3223 47.3967Z" fill="#AFB1B8" fill-opacity="1.000000" fill-rule="nonzero"/>
		<path id="Vector" d="M57.0326 45.9148C56.7532 46.3822 56.3276 46.7625 55.8103 47.0067C55.2222 47.2787 54.5695 47.4127 53.9109 47.3969L51.506 47.3969L51.506 41.2053L53.9109 41.2053C54.5684 41.1897 55.2202 41.3204 55.8103 41.5864C56.3275 41.8251 56.7536 42.2015 57.0326 42.6663C57.3107 43.1698 57.4556 43.7262 57.4556 44.2905C57.4556 44.8549 57.3107 45.4111 57.0326 45.9148ZM55.4866 45.7666C55.8722 45.3552 56.0842 44.8311 56.0842 44.2891C56.0842 43.7469 55.8722 43.2228 55.4866 42.8114C55.0205 42.439 54.4127 42.2498 53.7952 42.2852L52.8571 42.2852L52.8571 46.2928L53.7952 46.2928C54.4127 46.3282 55.0205 46.139 55.4866 45.7666Z" fill="#AFB1B8" fill-opacity="1.000000" fill-rule="nonzero"/>
		<path id="Vector" d="M40.8558 6.7666C40.8558 6.7666 58.2945 12.7947 57.9245 21.5178L57.9245 36.2721C57.9245 36.2721 40.4991 30.241 40.8624 21.5178L40.8558 6.7666Z" fill="#AFB1B8" fill-opacity="1.000000" fill-rule="nonzero"/>
		<path id="Vector" d="M73.4603 32.8181C76.7538 30.7428 80.5633 29.4574 84.5399 29.0796L84.5399 24.4609C79.9579 26.0779 76.0709 29.0099 73.4603 32.8181Z" fill="#AFB1B8" fill-opacity="1.000000" fill-rule="nonzero"/>
		<path id="Vector" d="M71.4816 34.2094C74.1773 29.2395 78.8505 25.4044 84.54 23.493L84.54 10.1846C84.54 10.1846 59.705 18.7716 60.2303 31.1938L60.2303 52.2001C60.2303 52.2001 61.3369 51.8159 63.0778 51.0961C63.0778 50.4246 63.0778 49.7471 63.157 49.0665C63.6711 43.2994 66.6653 37.9554 71.4816 34.2094Z" fill="#AFB1B8" fill-opacity="1.000000" fill-rule="nonzero"/>
		<path id="Vector" d="M69.1197 42.0129C69.2502 40.5562 69.5413 39.1151 69.9885 37.7119C66.9896 40.947 65.1735 44.9613 64.7955 49.1904C64.7592 49.5897 64.7394 49.989 64.7295 50.4004C66.1401 49.7803 67.7819 49.006 69.5062 48.0956C69.0662 46.0947 68.936 44.0471 69.1197 42.0129Z" fill="#AFB1B8" fill-opacity="1.000000" fill-rule="nonzero"/>
		<path id="Vector" d="M70.1074 42.0886C69.9421 43.929 70.0454 45.7811 70.4146 47.5964C77.1998 43.8792 84.824 38.1354 84.53 31.1938L84.53 30.5889C79.6823 31.0856 75.1468 33.0259 71.6204 36.1119C70.7947 38.0243 70.2848 40.0386 70.1074 42.0886Z" fill="#AFB1B8" fill-opacity="1.000000" fill-rule="nonzero"/>
	</g>
</svg>
