<svg width="106.000000" height="60.000000" viewBox="0 0 106 60" fill="inherit" xmlns="http://www.w3.org/2000/svg" xmlns:xlink="http://www.w3.org/1999/xlink">
	<desc>
			Created with Pixso.
	</desc>
	<defs>
		<clipPath id="clip11_3077">
			<rect id="Logo" width="106.000000" height="60.000000" fill="inherit" fill-opacity="0"/>
		</clipPath>
	</defs>
	<rect id="Logo" width="106.000000" height="60.000000" fill="inherit" fill-opacity="0"/>
	<g clip-path="url(#clip11_3077)">
		<path id="Vector" d="M24.1433 21.1028L24.1462 21.1028C26.5443 21.1028 28.4882 22.8303 28.4882 24.9614L28.4882 24.964C28.4882 27.0951 26.5443 28.8226 24.1462 28.8226L24.1433 28.8226C21.7452 28.8226 19.8013 27.0951 19.8013 24.964L19.8013 24.9614C19.8013 22.8303 21.7452 21.1028 24.1433 21.1028Z" fill="inherit" fill-opacity="1.000000" fill-rule="evenodd"/>
		<path id="Vector" d="M56.195 19.8693C56.1882 16.9093 54.8623 14.0723 52.5074 11.979C50.1525 9.88562 46.9604 8.70667 43.6297 8.69995L43.6297 8.69995C40.298 8.70532 37.1045 9.88379 34.7484 11.9772C32.3923 14.0706 31.0656 16.9084 31.0587 19.8693L31.0587 36.1921C31.0587 36.1921 56.1921 33.7045 56.195 19.8718L56.195 19.8693Z" fill="inherit" fill-opacity="1.000000" fill-rule="nonzero"/>
		<path id="Vector" d="M11 41.5494C11.006 43.609 11.9291 45.5828 13.5676 47.0394C15.2061 48.496 17.4267 49.317 19.7442 49.323C22.0612 49.317 24.2814 48.4963 25.9197 47.0403C27.5581 45.5842 28.4816 43.6112 28.4883 41.552L28.4883 30.1943C28.4883 30.1943 11 31.9266 11 41.5494ZM19.7442 43.5845C19.2913 43.5845 18.8486 43.4651 18.472 43.2415C18.0955 43.0178 17.802 42.7001 17.6287 42.3282C17.4554 41.9564 17.41 41.5472 17.4984 41.1525C17.5867 40.7577 17.8048 40.3951 18.1251 40.1105C18.4453 39.8259 18.8533 39.6321 19.2975 39.5536C19.7416 39.4751 20.202 39.5154 20.6204 39.6694C21.0389 39.8234 21.3965 40.0842 21.6481 40.4189C21.8997 40.7535 22.034 41.147 22.034 41.5494C22.0351 41.8174 21.9767 42.0828 21.8622 42.3306C21.7476 42.5784 21.5791 42.8036 21.3663 42.9933C21.1536 43.1831 20.9008 43.3337 20.6224 43.4364C20.3441 43.5392 20.0456 43.592 19.7442 43.592L19.7442 43.5845Z" fill="inherit" fill-opacity="1.000000" fill-rule="nonzero"/>
		<path id="FOSTER PETERS" d="M41.4197 43.2754Q41.6423 42.8008 41.6423 42.1709L41.6423 41.9805Q41.6423 41.3535 41.4153 40.8745Q41.2436 40.5122 40.9646 40.2773Q40.8747 40.2016 40.7737 40.1392Q40.6878 40.0861 40.5969 40.044Q40.2487 39.8828 39.8259 39.8828Q39.4032 39.8828 39.055 40.044Q38.964 40.0861 38.8782 40.1392Q38.7771 40.2016 38.6872 40.2773Q38.4083 40.5122 38.2366 40.8745Q38.0095 41.3535 38.0095 41.9834L38.0095 42.1943Q38.0125 42.8096 38.241 43.2827Q38.4077 43.628 38.6744 43.8571Q38.7731 43.9419 38.8855 44.0107Q38.9785 44.0677 39.0771 44.1119Q39.42 44.2656 39.8318 44.2656Q40.2619 44.2656 40.6138 44.0997Q40.7005 44.0588 40.7825 44.0078Q40.8995 43.9351 41.0012 43.845Q41.2599 43.6161 41.4197 43.2754ZM44.4185 42.8128Q44.4929 42.9259 44.4929 43.0879Q44.4929 43.2163 44.4374 43.3127Q44.3942 43.388 44.3171 43.4438Q44.1414 43.5713 43.8279 43.5713Q43.3316 43.5713 43.1272 43.327Q42.9841 43.156 42.9841 42.8652L42.1023 42.8652Q42.1023 43.1741 42.221 43.4272Q42.2611 43.5127 42.3147 43.5918Q42.3187 43.5977 42.3228 43.6036Q42.5347 43.9087 42.9314 44.0854Q43.3357 44.2656 43.8279 44.2656Q44.5369 44.2656 44.9558 43.9507Q45.1366 43.8148 45.2393 43.6345Q45.3748 43.3969 45.3748 43.082Q45.3748 42.8002 45.265 42.5709Q45.1808 42.395 45.032 42.25Q44.6892 41.916 43.9392 41.6904Q43.532 41.5674 43.3225 41.4268Q43.1737 41.3268 43.1306 41.1929Q43.113 41.1383 43.113 41.0781Q43.113 40.9694 43.1557 40.8813Q43.2003 40.7889 43.2917 40.7192Q43.4705 40.583 43.7927 40.583Q44.1267 40.583 44.3113 40.7456Q44.3578 40.7866 44.3926 40.8358Q44.4958 40.982 44.4958 41.2012L45.3748 41.2012Q45.3748 40.9376 45.2815 40.7127Q45.2389 40.6101 45.177 40.5156Q45.1342 40.4503 45.0839 40.3914Q44.9019 40.178 44.6218 40.0483Q44.2644 39.8828 43.8074 39.8828Q43.3533 39.8828 42.9885 40.0352Q42.6238 40.1875 42.429 40.4585Q42.3497 40.5687 42.3027 40.6913Q42.2341 40.8701 42.2341 41.0752Q42.2341 41.2753 42.2999 41.4508Q42.4528 41.8584 42.9607 42.1328Q43.2273 42.2764 43.6843 42.4243Q44.1414 42.5723 44.3171 42.7056Q44.3785 42.7521 44.4185 42.8128ZM78.7369 42.8128Q78.8113 42.9259 78.8113 43.0879Q78.8113 43.2163 78.7558 43.3127Q78.7125 43.388 78.6355 43.4438Q78.4597 43.5713 78.1462 43.5713Q77.65 43.5713 77.4456 43.327Q77.3025 43.156 77.3025 42.8652L76.4207 42.8652Q76.4207 43.1741 76.5394 43.4272Q76.5795 43.5127 76.6331 43.5918Q76.6371 43.5977 76.6411 43.6036Q76.8531 43.9087 77.2498 44.0854Q77.6541 44.2656 78.1462 44.2656Q78.8552 44.2656 79.2742 43.9507Q79.4549 43.8148 79.5577 43.6345Q79.6931 43.3969 79.6931 43.082Q79.6931 42.8002 79.5834 42.5709Q79.4992 42.395 79.3503 42.25Q79.0076 41.916 78.2576 41.6904Q77.8503 41.5674 77.6409 41.4268Q77.492 41.3268 77.4489 41.1929Q77.4314 41.1383 77.4314 41.0781Q77.4314 40.9694 77.474 40.8813Q77.5187 40.7889 77.6101 40.7192Q77.7888 40.583 78.1111 40.583Q78.4451 40.583 78.6296 40.7456Q78.6761 40.7866 78.7109 40.8358Q78.8142 40.982 78.8142 41.2012L79.6931 41.2012Q79.6931 40.9376 79.5998 40.7127Q79.5573 40.6101 79.4954 40.5156Q79.4526 40.4503 79.4023 40.3914Q79.2203 40.178 78.9402 40.0483Q78.5828 39.8828 78.1257 39.8828Q77.6716 39.8828 77.3069 40.0352Q76.9421 40.1875 76.7473 40.4585Q76.6681 40.5687 76.621 40.6913Q76.5525 40.8701 76.5525 41.0752Q76.5525 41.2753 76.6183 41.4508Q76.7711 41.8584 77.2791 42.1328Q77.5457 42.2764 78.0027 42.4243Q78.4597 42.5723 78.6355 42.7056Q78.6969 42.7521 78.7369 42.8128ZM35.7302 42.4639L37.4177 42.4639L37.4177 41.7549L35.7302 41.7549L35.7302 40.6533L37.6287 40.6533L37.6287 39.9414L34.8513 39.9414L34.8513 44.207L35.7302 44.207L35.7302 42.4639ZM47.8738 40.6533L49.1804 40.6533L49.1804 39.9414L45.7058 39.9414L45.7058 40.6533L46.9949 40.6533L46.9949 44.207L47.8738 44.207L47.8738 40.6533ZM50.5603 42.3584L52.2478 42.3584L52.2478 41.6699L50.5603 41.6699L50.5603 40.6533L52.5349 40.6533L52.5349 39.9414L49.6814 39.9414L49.6814 44.207L52.5408 44.207L52.5408 43.501L50.5603 43.501L50.5603 42.3584ZM53.9353 42.6455L54.6355 42.6455L55.4353 44.207L56.3787 44.207L56.3787 44.166L55.4558 42.4229Q55.8396 42.25 56.0286 41.9585Q56.2175 41.667 56.2175 41.2305Q56.2175 40.8017 56.0183 40.5081Q55.9317 40.3804 55.8074 40.2783Q55.3972 39.9414 54.6414 39.9414L53.0564 39.9414L53.0564 44.207L53.9353 44.207L53.9353 42.6455ZM59.2585 44.207L59.2585 42.7041L60.0291 42.7041Q60.7878 42.7041 61.217 42.3423Q61.3659 42.2168 61.4632 42.0594Q61.6462 41.763 61.6462 41.3535Q61.6462 41.0257 61.5226 40.7542Q61.4905 40.6835 61.45 40.6167Q61.392 40.5212 61.3195 40.4386Q61.1461 40.2411 60.8889 40.1172Q60.5242 39.9414 60.0437 39.9414L58.3796 39.9414L58.3796 44.207L59.2585 44.207ZM63.1287 42.3584L64.8162 42.3584L64.8162 41.6699L63.1287 41.6699L63.1287 40.6533L65.1033 40.6533L65.1033 39.9414L62.2498 39.9414L62.2498 44.207L65.1091 44.207L65.1091 43.501L63.1287 43.501L63.1287 42.3584ZM67.5876 40.6533L68.8943 40.6533L68.8943 39.9414L65.4197 39.9414L65.4197 40.6533L66.7087 40.6533L66.7087 44.207L67.5876 44.207L67.5876 40.6533ZM70.2742 42.3584L71.9617 42.3584L71.9617 41.6699L70.2742 41.6699L70.2742 40.6533L72.2488 40.6533L72.2488 39.9414L69.3953 39.9414L69.3953 44.207L72.2546 44.207L72.2546 43.501L70.2742 43.501L70.2742 42.3584ZM73.6492 42.6455L74.3494 42.6455L75.1492 44.207L76.0925 44.207L76.0925 44.166L75.1697 42.4229Q75.5535 42.25 75.7424 41.9585Q75.9314 41.667 75.9314 41.2305Q75.9314 40.8017 75.7322 40.5081Q75.6455 40.3804 75.5212 40.2783Q75.1111 39.9414 74.3552 39.9414L72.7703 39.9414L72.7703 44.207L73.6492 44.207L73.6492 42.6455ZM40.5115 40.958Q40.7517 41.3066 40.7517 41.9775L40.7517 42.1855Q40.7488 42.8506 40.5115 43.1978Q40.4066 43.3512 40.2616 43.4368Q40.0786 43.5449 39.8318 43.5449Q39.5855 43.5449 39.4021 43.4376Q39.2495 43.3482 39.1404 43.1846Q38.9001 42.8242 38.9001 42.1709L38.9001 41.9629Q38.9031 41.2979 39.1433 40.9536Q39.2487 40.8025 39.3931 40.7178Q39.5777 40.6094 39.8259 40.6094Q40.0745 40.6094 40.2592 40.718Q40.4053 40.804 40.5115 40.958ZM54.6443 41.9336L53.9353 41.9336L53.9353 40.6533L54.6414 40.6533Q54.9958 40.6533 55.1672 40.8262Q55.1937 40.8528 55.216 40.8825Q55.3386 41.0456 55.3386 41.3008Q55.3386 41.5274 55.2321 41.6793Q55.1995 41.7257 55.157 41.7651Q55.1525 41.7692 55.148 41.7733Q54.9673 41.9336 54.6443 41.9336ZM60.0437 41.9922L59.2585 41.9922L59.2585 40.6533L60.0642 40.6533Q60.3284 40.6581 60.4998 40.7866Q60.5394 40.8163 60.574 40.8525Q60.6152 40.8958 60.6473 40.945Q60.7585 41.116 60.7585 41.3594Q60.7585 41.6043 60.6402 41.7583Q60.6114 41.7959 60.5754 41.8281Q60.3923 41.9922 60.0437 41.9922ZM74.3582 41.9336L73.6492 41.9336L73.6492 40.6533L74.3552 40.6533Q74.7097 40.6533 74.8811 40.8262Q74.9075 40.8528 74.9299 40.8825Q75.0525 41.0456 75.0525 41.3008Q75.0525 41.5274 74.9459 41.6793Q74.9134 41.7257 74.8708 41.7651Q74.8664 41.7692 74.8619 41.7733Q74.6811 41.9336 74.3582 41.9336Z" fill="inherit" fill-opacity="1.000000" fill-rule="evenodd"/>
	</g>
</svg>
