<svg width="106.000000" height="60.000000" viewBox="0 0 106 60" fill="none" xmlns="http://www.w3.org/2000/svg" xmlns:xlink="http://www.w3.org/1999/xlink">
	<desc>
			Created with Pixso.
	</desc>
	<defs>
		<clipPath id="clip11_3028">
			<rect id="Logo " width="106.000000" height="60.000000" fill="white" fill-opacity="0"/>
		</clipPath>
	</defs>
	<g clip-path="url(#clip11_3028)">
		<path id="Union" d="M49.9771 5.93457L50.1136 5.93457C50.3666 5.93457 50.6398 5.95996 50.9105 5.98279C52.1031 6.06689 53.2874 6.24548 54.4521 6.51685L54.4521 3.65356C53.2528 3.35266 52.0297 3.15784 50.7966 3.07117C50.3286 3.03564 49.8303 3.0127 49.3193 3L48.8917 3C46.4169 3.00928 43.9526 3.32703 41.5555 3.94592C38.8253 4.62683 36.2047 5.69275 33.7716 7.11194L33.7716 35.5085C36.1144 34.2357 38.6072 33.2643 41.1913 32.6173C43.2317 32.0967 45.3175 31.7765 47.4194 31.6611L47.5029 31.6611C47.8546 31.6433 48.2062 31.6332 48.568 31.6306L48.568 28.7216C45.8368 28.7567 43.1194 29.1178 40.4729 29.7972C39.4939 30.0515 38.5477 30.3262 37.6598 30.6312L36.6479 30.9746L36.6479 8.8335L37.0804 8.62488C40.3817 7.05957 43.9523 6.14868 47.5966 5.94214C47.6268 5.93994 47.6573 5.93994 47.6876 5.94214C48.0898 5.92175 48.4946 5.91162 48.8917 5.91162L49.3472 5.91162C49.5571 5.91675 49.7671 5.92175 49.9771 5.93457ZM55.1528 8.86133C55.7877 8.90967 56.4454 8.93262 57.1108 8.93262C59.7125 8.9231 62.3031 8.59082 64.824 7.94336C67.4069 7.29395 69.8986 6.32178 72.2411 5.04956L72.2411 32.9402C69.8066 34.3585 67.1853 35.4243 64.4546 36.1061C62.0571 36.7227 59.593 37.0396 57.1184 37.0496C55.2433 37.0647 53.3737 36.8442 51.553 36.3934L51.553 8.32227C51.983 8.42151 52.4258 8.51306 52.876 8.58923C53.6147 8.71387 54.3938 8.80542 55.1528 8.86133ZM69.347 9.07751L68.3352 9.41833C67.4042 9.73108 66.4657 10.0107 65.5221 10.26C62.7749 10.9659 59.9514 11.3281 57.1158 11.3381C56.4556 11.3381 55.8485 11.3204 55.2616 11.2822L54.4546 11.2289L54.4546 34.0057L55.1477 34.0668C55.7903 34.1227 56.453 34.1506 57.1208 34.1506C59.3544 34.1411 61.5781 33.8533 63.7412 33.2937C65.5223 32.8469 67.2552 32.2242 68.9144 31.4348L69.347 31.2263L69.347 9.07751Z" clip-rule="evenodd" fill="#AFB1B8" fill-opacity="1.000000" fill-rule="evenodd"/>
		<path id="Vector" d="M35.7372 45.2125C35.5917 45.0616 35.4163 44.9431 35.2224 44.8647C35.0284 44.7864 34.8203 44.7498 34.6115 44.7573C34.3888 44.7544 34.1678 44.7959 33.9613 44.8794C33.7719 44.9548 33.5997 45.0681 33.4553 45.2125C33.3125 45.3573 33.2013 45.5305 33.129 45.7211C33.0497 45.9208 33.0101 46.1342 33.0126 46.3492L33.0126 50.1432C33.0035 50.4105 33.0546 50.6765 33.1619 50.9214C33.2515 51.1157 33.3807 51.2891 33.5414 51.4299C33.693 51.5576 33.871 51.6497 34.0625 51.6995C34.2469 51.7513 34.4375 51.7778 34.6292 51.7783C34.8405 51.7804 35.0496 51.7352 35.2413 51.6461C35.4309 51.5631 35.6028 51.444 35.7472 51.2952C35.8882 51.1477 36.0005 50.9753 36.0786 50.7866C36.1597 50.5952 36.201 50.3893 36.2001 50.1814L36.2001 49.7567L35.2084 49.7567L35.2084 50.0948C35.2114 50.2103 35.1917 50.3253 35.1503 50.4331C35.1179 50.5139 35.0687 50.5867 35.0061 50.6467C34.9446 50.6963 34.8741 50.7335 34.7986 50.7561C34.7317 50.7783 34.6617 50.7904 34.5912 50.7916C34.5027 50.802 34.413 50.7886 34.3312 50.7528C34.2495 50.7172 34.1786 50.6603 34.1257 50.5883C34.0322 50.4358 33.9865 50.2585 33.9941 50.0796L33.9941 46.5425C33.988 46.3463 34.0297 46.1516 34.1156 45.9753C34.1671 45.8953 34.2399 45.8314 34.3258 45.7909C34.4116 45.7505 34.5071 45.7351 34.6013 45.7465C34.6868 45.7435 34.7717 45.7614 34.8488 45.7986C34.9259 45.8357 34.9929 45.8912 35.0439 45.9601C35.1549 46.1058 35.213 46.2853 35.2084 46.4688L35.2084 46.7968L36.1899 46.7968L36.1899 46.4103C36.1919 46.1832 36.1508 45.958 36.0685 45.7465C35.9952 45.5477 35.8826 45.3661 35.7372 45.2125Z" fill="#AFB1B8" fill-opacity="1.000000" fill-rule="nonzero"/>
		<path id="Vector" d="M41.6289 45.1689C41.3127 44.902 40.9136 44.7545 40.5006 44.752C40.2987 44.7528 40.0984 44.7889 39.9087 44.8588C39.7162 44.9277 39.5385 45.0331 39.385 45.1689C39.2208 45.3167 39.0897 45.4978 39.0005 45.7004C38.9006 45.9323 38.8514 46.1829 38.8563 46.4353L38.8563 50.0742C38.8495 50.3302 38.8987 50.5846 39.0005 50.8193C39.0903 51.015 39.2216 51.1886 39.385 51.3279C39.5366 51.4688 39.7147 51.5776 39.9087 51.6483C40.0984 51.7181 40.2987 51.7543 40.5006 51.7551C40.7026 51.7548 40.9031 51.7186 41.0927 51.6483C41.2899 51.5767 41.4719 51.4679 41.6289 51.3279C41.7871 51.186 41.9146 51.0129 42.0033 50.8193C42.1051 50.5846 42.1543 50.3302 42.1475 50.0742L42.1475 46.4353C42.1523 46.1829 42.1033 45.9323 42.0033 45.7004C41.915 45.5 41.7877 45.3192 41.6289 45.1689ZM41.166 50.0742C41.1743 50.1713 41.1609 50.2689 41.1268 50.36C41.0927 50.451 41.0386 50.5333 40.9686 50.6007C40.8376 50.7104 40.6725 50.7706 40.502 50.7706C40.3313 50.7706 40.1661 50.7104 40.0352 50.6007C39.9652 50.5333 39.9113 50.451 39.8771 50.36C39.8429 50.2689 39.8295 50.1713 39.8379 50.0742L39.8379 46.4353C39.8295 46.3384 39.8429 46.2407 39.8771 46.1497C39.9113 46.0586 39.9652 45.9763 40.0352 45.9089C40.1661 45.7991 40.3313 45.739 40.502 45.739C40.6725 45.739 40.8376 45.7991 40.9686 45.9089C41.0386 45.9763 41.0927 46.0586 41.1268 46.1497C41.1609 46.2407 41.1743 46.3384 41.166 46.4353L41.166 50.0742Z" fill="#AFB1B8" fill-opacity="1.000000" fill-rule="nonzero"/>
		<path id="Vector" d="M49.3673 51.6993L49.3673 44.8105L48.4136 44.8105L47.1614 48.457L47.1437 48.457L45.8813 44.8105L44.9377 44.8105L44.9377 51.6993L45.9218 51.6993L45.9218 47.5085L45.9396 47.5085L46.9033 50.4711L47.3942 50.4711L48.3655 47.5085L48.3832 47.5085L48.3832 51.6993L49.3673 51.6993Z" fill="#AFB1B8" fill-opacity="1.000000" fill-rule="nonzero"/>
		<path id="Vector" d="M54.958 45.2936C54.8065 45.1235 54.6152 44.9941 54.4015 44.9172C54.1713 44.8423 53.9302 44.8062 53.6881 44.8104L52.226 44.8104L52.226 51.6991L53.2075 51.6991L53.2075 49.0088L53.7134 49.0088C54.0197 49.0227 54.3245 48.9579 54.5989 48.8206C54.822 48.6967 55.0081 48.5149 55.1377 48.2942C55.2512 48.111 55.3278 47.907 55.3628 47.6941C55.4015 47.4348 55.4192 47.173 55.4159 46.9109C55.4254 46.5801 55.3932 46.2494 55.3198 45.9268C55.2543 45.6884 55.1299 45.4706 54.958 45.2936ZM54.4521 47.394C54.4479 47.5187 54.4167 47.641 54.3611 47.7526C54.3049 47.8585 54.2162 47.9432 54.108 47.9941C53.9626 48.0591 53.8041 48.0887 53.6451 48.0806L53.1974 48.0806L53.1974 45.7385L53.7034 45.7385C53.8557 45.7311 54.0076 45.7607 54.146 45.8251C54.2476 45.8833 54.3281 45.9723 54.3762 46.0793C54.4298 46.2003 54.4591 46.3308 54.4623 46.4633C54.4623 46.6083 54.4623 46.7609 54.4623 46.921C54.4623 47.0812 54.4723 47.2465 54.4623 47.394L54.4521 47.394Z" fill="#AFB1B8" fill-opacity="1.000000" fill-rule="nonzero"/>
		<path id="Vector" d="M59.6077 44.8105L58.8032 44.8105L57.2854 51.6993L58.267 51.6993L58.5553 50.2194L59.8936 50.2194L60.1819 51.6993L61.1635 51.6993L59.6077 44.8105ZM58.702 49.281L59.1852 46.7838L59.2029 46.7838L59.6836 49.281L58.702 49.281Z" fill="#AFB1B8" fill-opacity="1.000000" fill-rule="nonzero"/>
		<path id="Vector" d="M65.9497 48.9606L65.932 48.9606L64.4496 44.8105L63.506 44.8105L63.506 51.6993L64.4875 51.6993L64.4875 47.5569L64.5078 47.5569L66.0079 51.6993L66.9313 51.6993L66.9313 44.8105L65.9497 44.8105L65.9497 48.9606Z" fill="#AFB1B8" fill-opacity="1.000000" fill-rule="nonzero"/>
		<path id="Vector" d="M71.9476 44.8105L71.1583 47.5493L71.1381 47.5493L70.3488 44.8105L69.3091 44.8105L70.6575 48.7877L70.6575 51.6993L71.6389 51.6993L71.6389 48.7877L72.9873 44.8105L71.9476 44.8105Z" fill="#AFB1B8" fill-opacity="1.000000" fill-rule="nonzero"/>
		<path id="Vector" d="M33 53.6447L33.473 53.6447L33.473 54.972L33.7943 54.972L33.7943 53.6447L34.2649 53.6447L34.2649 53.3726L33 53.3726L33 53.6447Z" fill="#AFB1B8" fill-opacity="1.000000" fill-rule="nonzero"/>
		<path id="Vector" d="M36.9767 53.3726L36.3569 54.972L36.6985 54.972L36.83 54.6084L37.4675 54.6084L37.6041 54.972L37.9532 54.972L37.3182 53.3726L36.9767 53.3726ZM36.9261 54.3389L37.1437 53.7463L37.3612 54.3389L36.9261 54.3389Z" fill="#AFB1B8" fill-opacity="1.000000" fill-rule="nonzero"/>
		<path id="Vector" d="M40.908 54.3821L41.2772 54.3821L41.2772 54.5881C41.1694 54.6746 41.0358 54.722 40.8978 54.7229C40.8333 54.7264 40.7688 54.7145 40.7098 54.688C40.6509 54.6615 40.5991 54.6211 40.5588 54.5703C40.474 54.4485 40.4321 54.3018 40.4399 54.1533C40.4399 53.7972 40.5942 53.6193 40.9004 53.6193C40.981 53.6112 41.0616 53.6324 41.1281 53.6791C41.1943 53.7257 41.2419 53.7947 41.2621 53.8735L41.5782 53.8125C41.51 53.4998 41.2849 53.342 40.9004 53.342C40.6947 53.3365 40.4948 53.4103 40.3413 53.5481C40.2607 53.6277 40.1984 53.7239 40.1586 53.8302C40.1188 53.9365 40.1027 54.0502 40.1111 54.1635C40.1018 54.3823 40.1749 54.5966 40.3159 54.7635C40.3943 54.8444 40.4893 54.9071 40.594 54.9475C40.6989 54.9879 40.8112 55.0049 40.9231 54.9976C41.1733 55.0045 41.4165 54.9133 41.6011 54.7432L41.6011 54.1125L40.908 54.1125L40.908 54.3821Z" fill="#AFB1B8" fill-opacity="1.000000" fill-rule="nonzero"/>
		<path id="Vector" d="M44.9226 53.3726L44.5988 53.3726L44.5988 54.972L45.7195 54.972L45.7195 54.7L44.9226 54.7L44.9226 53.3726Z" fill="#AFB1B8" fill-opacity="1.000000" fill-rule="nonzero"/>
		<path id="Vector" d="M47.9937 53.3726L48.3175 53.3726L48.3175 54.972L47.9937 54.972L47.9937 53.3726Z" fill="#AFB1B8" fill-opacity="1.000000" fill-rule="evenodd"/>
		<path id="Vector" d="M51.6365 54.4406L50.9813 53.3726L50.6676 53.3726L50.6676 54.972L50.9686 54.972L50.9686 53.9269L51.6112 54.972L51.9325 54.972L51.9325 53.3726L51.6365 53.3726L51.6365 54.4406Z" fill="#AFB1B8" fill-opacity="1.000000" fill-rule="nonzero"/>
		<path id="Vector" d="M54.6368 54.2677L55.4337 54.2677L55.4337 53.9956L54.6368 53.9956L54.6368 53.6447L55.4944 53.6447L55.4944 53.3726L54.313 53.3726L54.313 54.972L55.5272 54.972L55.5272 54.7L54.6368 54.7L54.6368 54.2677Z" fill="#AFB1B8" fill-opacity="1.000000" fill-rule="nonzero"/>
		<path id="Vector" d="M61.9122 54.0032L61.2823 54.0032L61.2823 53.3726L60.9611 53.3726L60.9611 54.972L61.2823 54.972L61.2823 54.2727L61.9122 54.2727L61.9122 54.972L62.2335 54.972L62.2335 53.3726L61.9122 53.3726L61.9122 54.0032Z" fill="#AFB1B8" fill-opacity="1.000000" fill-rule="nonzero"/>
		<path id="Vector" d="M64.9302 54.2677L65.7295 54.2677L65.7295 53.9956L64.9302 53.9956L64.9302 53.6447L65.7903 53.6447L65.7903 53.3726L64.6089 53.3726L64.6089 54.972L65.8207 54.972L65.8207 54.7L64.9302 54.7L64.9302 54.2677Z" fill="#AFB1B8" fill-opacity="1.000000" fill-rule="nonzero"/>
		<path id="Vector" d="M69.0232 54.2676C69.3015 54.2244 69.4432 54.0769 69.4432 53.8226C69.4513 53.7545 69.4409 53.6855 69.4133 53.6229C69.3857 53.5603 69.3419 53.5063 69.2864 53.4666C69.1415 53.3938 68.9799 53.3613 68.8184 53.3726L68.1404 53.3726L68.1404 54.972L68.4617 54.972L68.4617 54.3032L68.5249 54.3032C68.5934 54.299 68.6619 54.3112 68.7247 54.3389C68.7717 54.3678 68.8108 54.408 68.8386 54.4558L69.1877 54.9644L69.5723 54.9644L69.3774 54.6516C69.2913 54.4972 69.1699 54.3656 69.0232 54.2676ZM68.6995 54.0464L68.4617 54.0464L68.4617 53.6447L68.7146 53.6447C68.8248 53.6356 68.9357 53.6486 69.041 53.6827C69.0643 53.7034 69.0828 53.7291 69.095 53.7579C69.1072 53.7867 69.1127 53.8179 69.1112 53.8491C69.1099 53.8804 69.1013 53.911 69.0865 53.9385C69.0718 53.9661 69.051 53.9899 69.0258 54.0082C68.9202 54.0406 68.8096 54.0536 68.6995 54.0464Z" fill="#AFB1B8" fill-opacity="1.000000" fill-rule="nonzero"/>
		<path id="Vector" d="M72.1096 54.2677L72.9064 54.2677L72.9064 53.9956L72.1096 53.9956L72.1096 53.6447L72.9697 53.6447L72.9697 53.3726L71.7858 53.3726L71.7858 54.972L73 54.972L73 54.7L72.1096 54.7L72.1096 54.2677Z" fill="#AFB1B8" fill-opacity="1.000000" fill-rule="nonzero"/>
	</g>
</svg>
