<svg width="106.000000" height="60.000000" viewBox="0 0 106 60" fill="none" xmlns="http://www.w3.org/2000/svg" xmlns:xlink="http://www.w3.org/1999/xlink">
	<desc>
			Created with Pixso.
	</desc>
	<defs>
		<clipPath id="clip11_3059">
			<rect id="Logo" width="106.000000" height="60.000000" fill="white" fill-opacity="0"/>
		</clipPath>
	</defs>
	<rect id="Logo" width="106.000000" height="60.000000" fill="#2196F3" fill-opacity="0"/>
	<g clip-path="url(#clip11_3059)">
		<path id="Vector" d="M36.4062 49.1013C36.4221 49.1017 36.4378 49.1049 36.4523 49.1105C36.4668 49.1162 36.4799 49.1244 36.4907 49.1345L36.7089 49.343C36.5396 49.5117 36.3303 49.6467 36.0954 49.7386C35.8203 49.839 35.5239 49.8875 35.2256 49.8807C34.9454 49.8859 34.667 49.8407 34.4077 49.7482C34.1738 49.6631 33.9637 49.5355 33.7915 49.3738C33.6158 49.2061 33.4805 49.0095 33.3935 48.7957C33.2982 48.5574 33.2512 48.3064 33.2544 48.0541C33.2505 47.8002 33.3014 47.5479 33.4044 47.3102C33.4996 47.095 33.6433 46.8984 33.827 46.7321C34.0131 46.569 34.2358 46.4407 34.4813 46.3553C34.7499 46.2649 35.0358 46.2198 35.3238 46.2227C35.5913 46.217 35.8574 46.2582 36.1063 46.3435C36.3223 46.4249 36.5205 46.538 36.6925 46.6776L36.5098 46.9003C36.4972 46.916 36.4815 46.9296 36.4635 46.9406C36.4419 46.9534 36.4159 46.9592 36.3898 46.9572C36.3616 46.9554 36.3343 46.9473 36.3108 46.9335L36.2126 46.8743L36.0763 46.7985C36.0175 46.7703 35.9564 46.7457 35.8936 46.725C35.8127 46.6998 35.7299 46.6801 35.6455 46.6658C35.5385 46.6486 35.4299 46.6406 35.3211 46.6421C35.1137 46.6398 34.9079 46.6736 34.7158 46.7416C34.5367 46.8044 34.3749 46.8998 34.2414 47.0211C34.1055 47.1501 34.0007 47.3016 33.9333 47.4666C33.8565 47.6552 33.8187 47.854 33.8215 48.0541C33.8182 48.2573 33.8561 48.4594 33.9333 48.6511C33.9998 48.8146 34.1027 48.9652 34.236 49.0942C34.3608 49.2145 34.5156 49.3085 34.6885 49.369C34.8665 49.4331 35.0576 49.4653 35.2502 49.4637C35.3615 49.4653 35.4727 49.459 35.5828 49.4448C35.7626 49.4258 35.9351 49.3715 36.0872 49.2861C36.1635 49.2423 36.2356 49.1932 36.3026 49.1392C36.3306 49.116 36.3675 49.1025 36.4062 49.1013Z" fill="#AFB1B8" fill-opacity="1.000000" fill-rule="nonzero"/>
		<path id="Vector" d="M42.7043 48.0537C42.7077 48.3051 42.6578 48.5548 42.5571 48.7904C42.4683 49.0043 42.3282 49.1992 42.1464 49.3625C41.9645 49.5259 41.7449 49.6538 41.502 49.738C40.9681 49.915 40.3781 49.915 39.8443 49.738C39.6029 49.6526 39.3847 49.5243 39.2036 49.3615C39.0218 49.1951 38.8808 48.9984 38.7891 48.7833C38.5928 48.3062 38.5928 47.7847 38.7891 47.3075C38.8821 47.0923 39.0229 46.895 39.2036 46.7271C39.3862 46.5692 39.6043 46.4459 39.8443 46.3645C40.3774 46.1844 40.9688 46.1844 41.502 46.3645C41.7441 46.4501 41.9633 46.5782 42.1454 46.7412C42.3249 46.9059 42.4648 47.1 42.5571 47.3121C42.6581 47.5494 42.708 47.8008 42.7043 48.0537ZM42.1318 48.0537C42.136 47.8525 42.101 47.6523 42.0281 47.4614C41.967 47.2979 41.8677 47.1471 41.7365 47.0184C41.6086 46.8967 41.4512 46.8011 41.2756 46.7389C40.8878 46.6094 40.4584 46.6094 40.0706 46.7389C39.895 46.8011 39.7376 46.8967 39.6098 47.0184C39.4767 47.1462 39.3763 47.2974 39.3154 47.4614C39.1766 47.847 39.1766 48.2603 39.3154 48.646C39.3769 48.8098 39.4772 48.9607 39.6098 49.089C39.7378 49.21 39.8952 49.3047 40.0706 49.3661C40.4591 49.4924 40.8871 49.4924 41.2756 49.3661C41.451 49.3047 41.6085 49.21 41.7365 49.089C41.8672 48.96 41.9664 48.8092 42.0281 48.646C42.1013 48.4551 42.1364 48.2548 42.1318 48.0537Z" fill="#AFB1B8" fill-opacity="1.000000" fill-rule="nonzero"/>
		<path id="Vector" d="M47.0013 48.6748L47.0586 48.8075C47.0804 48.7601 47.0995 48.7174 47.1213 48.6748C47.1421 48.6302 47.1657 48.5868 47.1921 48.5446L48.5854 46.344C48.6127 46.306 48.6372 46.2823 48.6644 46.2753C48.7015 46.2655 48.7403 46.2615 48.779 46.2634L49.1907 46.2634L49.1907 49.8427L48.7026 49.8427L48.7026 47.2109C48.7026 47.1777 48.7026 47.1399 48.7026 47.0996C48.7 47.0586 48.7 47.0175 48.7026 46.9764L47.3012 49.2078C47.2834 49.2412 47.2549 49.2695 47.2192 49.2892C47.1834 49.309 47.1418 49.3193 47.0995 49.3191L47.0204 49.3191C46.978 49.3197 46.9362 49.3094 46.9004 49.2897C46.8646 49.2699 46.8361 49.2415 46.8187 49.2078L45.3763 46.9622C45.3763 47.0049 45.3763 47.0475 45.3763 47.0901C45.3763 47.1328 45.3763 47.1707 45.3763 47.2039L45.3763 49.8356L44.9047 49.8356L44.9047 46.2634L45.3163 46.2634C45.355 46.2615 45.3938 46.2655 45.4308 46.2753C45.4647 46.2898 45.4916 46.3141 45.5072 46.344L46.9304 48.5469C46.9584 48.5876 46.9821 48.6305 47.0013 48.6748Z" fill="#AFB1B8" fill-opacity="1.000000" fill-rule="nonzero"/>
		<path id="Vector" d="M52.2443 48.4969L52.2443 49.8376L51.699 49.8376L51.699 46.2633L52.915 46.2633C53.1445 46.2595 53.3734 46.2858 53.5939 46.3414C53.7703 46.3849 53.934 46.4608 54.0737 46.5641C54.1948 46.6609 54.2882 46.781 54.3464 46.9147C54.4108 47.0605 54.4422 47.2157 54.4391 47.3718C54.4415 47.5286 54.4072 47.6842 54.3382 47.829C54.2726 47.9662 54.1719 48.0885 54.0438 48.1866C53.9039 48.2943 53.7394 48.375 53.5612 48.4236C53.3489 48.4825 53.1269 48.5105 52.9041 48.5065L52.2443 48.4969ZM52.2443 48.1133L52.9041 48.1133C53.0474 48.1149 53.1901 48.0964 53.3267 48.0588C53.4393 48.0259 53.5432 47.9735 53.632 47.9048C53.7139 47.8392 53.7774 47.7582 53.8174 47.668C53.8621 47.5725 53.8843 47.4702 53.8829 47.3671C53.8892 47.2677 53.8705 47.1683 53.8282 47.0759C53.7858 46.9835 53.7207 46.9001 53.6375 46.8318C53.4292 46.6906 53.1675 46.6221 52.9041 46.6399L52.2443 46.6399L52.2443 48.1133Z" fill="#AFB1B8" fill-opacity="1.000000" fill-rule="nonzero"/>
		<path id="Vector" d="M59.5731 49.8425L59.1423 49.8425C59.0991 49.844 59.0566 49.8323 59.0223 49.8093C58.9914 49.787 58.9671 49.7585 58.9515 49.7264L58.5806 48.8617L56.7184 48.8617L56.334 49.7264C56.3199 49.7581 56.2964 49.7859 56.2659 49.807C56.2312 49.8312 56.1877 49.8439 56.1432 49.8425L55.7124 49.8425L57.3483 46.2629L57.9154 46.2629L59.5731 49.8425ZM56.8739 48.5135L58.4116 48.5135L57.7627 47.0565C57.7131 46.9469 57.6721 46.8346 57.64 46.7202L57.5773 46.9073C57.5582 46.9641 57.5364 47.0162 57.5173 47.059L56.8739 48.5135Z" fill="#AFB1B8" fill-opacity="1.000000" fill-rule="nonzero"/>
		<path id="Vector" d="M61.9288 46.2795C61.9614 46.2952 61.9894 46.317 62.0106 46.3435L64.3962 49.0419C64.3962 48.9991 64.3962 48.9565 64.3962 48.9163C64.3962 48.876 64.3962 48.8357 64.3962 48.7979L64.3962 46.2631L64.8843 46.2631L64.8843 49.8425L64.6116 49.8425C64.5729 49.8435 64.5345 49.8362 64.4998 49.8212C64.4661 49.8042 64.4365 49.7816 64.4126 49.7549L62.0297 47.059C62.0323 47.1 62.0323 47.1411 62.0297 47.1821C62.0297 47.2224 62.0297 47.2579 62.0297 47.2911L62.0297 49.8425L61.5416 49.8425L61.5416 46.2631L61.8306 46.2631C61.8644 46.2622 61.8979 46.2678 61.9288 46.2795Z" fill="#AFB1B8" fill-opacity="1.000000" fill-rule="nonzero"/>
		<path id="Vector" d="M68.903 48.4188L68.903 49.8402L68.3577 49.8402L68.3577 48.4188L66.85 46.2631L67.338 46.2631C67.3801 46.2609 67.4216 46.2719 67.4553 46.2938C67.4849 46.3168 67.5098 46.3441 67.5289 46.3744L68.4722 47.765C68.5104 47.8242 68.5432 47.8787 68.5704 47.9308C68.5977 47.9829 68.6194 48.0327 68.6385 48.0824L68.7094 47.9285C68.7359 47.8721 68.7668 47.8175 68.8021 47.765L69.7319 46.3649C69.7514 46.3369 69.7753 46.3115 69.8028 46.2891C69.8351 46.2645 69.8771 46.2518 69.92 46.2535L70.4135 46.2535L68.903 48.4188Z" fill="#AFB1B8" fill-opacity="1.000000" fill-rule="nonzero"/>
		<path id="Vector" d="M46.7313 40.2562C46.9685 40.2823 47.2084 40.3036 47.4511 40.3226C51.1299 38.8927 54.2421 36.5525 56.3986 33.5944C58.5551 30.6361 59.6602 27.1914 59.5757 23.6906L55.5215 20.168C56.3458 23.8953 55.9602 27.7483 54.4078 31.296C52.8554 34.8438 50.1974 37.9463 46.7313 40.2562Z" fill="#AFB1B8" fill-opacity="1.000000" fill-rule="nonzero"/>
		<path id="Vector" d="M45.2836 40.0924L45.3927 40.1113C49.0966 37.8096 51.9205 34.5952 53.4992 30.884C55.0779 27.1729 55.3389 23.1355 54.2482 19.2941L48.4736 14.2769C50.8093 18.4009 51.7495 23.0162 51.1848 27.5863C50.6201 32.1562 48.5737 36.4932 45.2836 40.0924Z" fill="#AFB1B8" fill-opacity="1.000000" fill-rule="nonzero"/>
		<path id="Vector" d="M64.8679 27.8267C63.8868 31.6732 61.504 35.1423 58.0735 37.719C57.0716 38.4756 55.9909 39.1497 54.8453 39.7325C57.6388 39.0192 60.2064 37.7579 62.3502 36.046C64.4939 34.3342 66.1566 32.2175 67.2099 29.8591L64.8679 27.8267Z" fill="#AFB1B8" fill-opacity="1.000000" fill-rule="nonzero"/>
		<path id="Vector" d="M63.949 27.2601L60.6146 24.363C60.5508 27.6661 59.47 30.8942 57.4846 33.7114C55.499 36.5288 52.6813 38.8328 49.3242 40.3838L49.3406 40.3838C50.0887 40.3835 50.8362 40.3448 51.579 40.2677C54.7164 39.1552 57.488 37.385 59.6464 35.1154C61.8049 32.8457 63.283 30.147 63.949 27.2601Z" fill="#AFB1B8" fill-opacity="1.000000" fill-rule="nonzero"/>
		<path id="Vector" d="M45.7662 12.1609L41.7882 8.69995C38.2321 9.89392 35.1737 11.9928 33.0132 14.722C30.8528 17.4512 29.691 20.6835 29.6799 23.9958L29.6799 23.9958C29.6932 27.656 31.1111 31.2076 33.7092 34.0887C36.3072 36.97 39.937 39.016 44.0239 39.9031C47.6724 36.041 49.8084 31.2688 50.1218 26.2798C50.4351 21.2908 48.9093 16.345 45.7662 12.1609Z" fill="#AFB1B8" fill-opacity="1.000000" fill-rule="nonzero"/>
		<path id="Vector" d="M73.14 26.7274C73.1256 22.385 71.1338 18.2239 67.5996 15.1533C64.0655 12.0826 59.2762 10.3521 54.2783 10.3396C51.9688 10.3375 49.6788 10.7078 47.5248 11.4316L71.8804 32.5928C72.7143 30.7222 73.1414 28.7334 73.14 26.7274Z" fill="#AFB1B8" fill-opacity="1.000000" fill-rule="nonzero"/>
	</g>
</svg>
