<svg width="40.000000" height="52.000000" viewBox="0 0 40 52" fill="none" xmlns="http://www.w3.org/2000/svg" xmlns:xlink="http://www.w3.org/1999/xlink">
	<desc>
			Created with Pixso.
	</desc>
	<defs/>
	<path id="Vector" d="M16.97 2.93L17.11 2.93C17.36 2.93 17.63 2.95 17.91 2.98C19.1 3.06 20.28 3.24 21.45 3.51L21.45 0.65C20.25 0.35 19.02 0.15 17.79 0.07C17.32 0.03 16.83 0.01 16.31 0L15.89 0C13.41 0 10.95 0.32 8.55 0.94C5.82 1.62 3.2 2.69 0.77 4.11L0.77 32.5C3.11 31.23 5.6 30.26 8.19 29.61C10.23 29.09 12.31 28.77 14.41 28.66L14.5 28.66C14.85 28.64 15.2 28.63 15.56 28.63L15.56 25.72C12.83 25.75 10.11 26.11 7.47 26.79C6.49 27.05 5.54 27.32 4.65 27.63L3.64 27.97L3.64 5.83L4.08 5.62C7.38 4.05 10.95 3.14 14.59 2.94C14.62 2.93 14.65 2.93 14.68 2.94C15.08 2.92 15.49 2.91 15.89 2.91L16.32 2.91L16.34 2.91C16.55 2.91 16.76 2.92 16.97 2.93Z" fill="#AFB1B8" fill-opacity="1.000000" fill-rule="nonzero"/>
	<path id="Vector" d="M24.11 5.93C23.44 5.93 22.78 5.9 22.15 5.86C21.39 5.8 20.61 5.71 19.87 5.58C19.42 5.51 18.98 5.42 18.55 5.32L18.55 33.39C20.37 33.84 22.24 34.06 24.11 34.04C26.59 34.03 29.05 33.72 31.45 33.1C34.18 32.42 36.8 31.35 39.24 29.94L39.24 2.04C36.89 3.32 34.4 4.29 31.82 4.94C29.3 5.59 26.71 5.92 24.11 5.93ZM35.33 6.41L36.34 6.07L36.34 28.22L35.91 28.43C34.25 29.22 32.52 29.84 30.74 30.29C28.57 30.85 26.35 31.14 24.12 31.15C23.45 31.15 22.79 31.12 22.14 31.06L21.45 31L21.45 28.31L21.45 8.22L22.26 8.28C22.84 8.32 23.45 8.33 24.11 8.33C26.95 8.32 29.77 7.96 32.52 7.25C33.46 7.01 34.4 6.73 35.33 6.41Z" fill="#AFB1B8" fill-opacity="1.000000" fill-rule="nonzero"/>
	<path id="Vector" d="M2.73 42.21C2.59 42.06 2.41 41.94 2.22 41.86C2.02 41.78 1.82 41.74 1.61 41.75C1.38 41.75 1.16 41.79 0.96 41.87C0.77 41.95 0.59 42.06 0.45 42.21C0.31 42.35 0.2 42.53 0.12 42.72C0.04 42.92 0.01 43.13 0.01 43.34L0.01 47.14C0 47.41 0.05 47.67 0.16 47.92C0.25 48.11 0.38 48.28 0.54 48.42C0.69 48.55 0.87 48.64 1.06 48.69C1.24 48.75 1.43 48.77 1.62 48.77C1.84 48.78 2.04 48.73 2.24 48.64C2.43 48.56 2.6 48.44 2.74 48.29C2.88 48.14 3 47.97 3.07 47.78C3.15 47.59 3.2 47.38 3.2 47.18L3.2 46.75L2.2 46.75L2.2 47.09C2.21 47.21 2.19 47.32 2.15 47.43C2.11 47.51 2.06 47.58 2 47.64C1.94 47.69 1.87 47.73 1.79 47.75C1.73 47.77 1.66 47.79 1.59 47.79C1.5 47.8 1.41 47.78 1.33 47.75C1.24 47.71 1.17 47.66 1.12 47.58C1.03 47.43 0.98 47.25 0.99 47.07L0.99 43.54C0.98 43.34 1.02 43.15 1.11 42.97C1.16 42.89 1.23 42.83 1.32 42.79C1.41 42.75 1.5 42.73 1.6 42.74C1.68 42.74 1.77 42.76 1.84 42.79C1.92 42.83 1.99 42.89 2.04 42.95C2.15 43.1 2.21 43.28 2.2 43.46L2.2 43.79L3.18 43.79L3.18 43.41C3.19 43.18 3.15 42.95 3.06 42.74C2.99 42.54 2.88 42.36 2.73 42.21Z" fill="#AFB1B8" fill-opacity="1.000000" fill-rule="nonzero"/>
	<path id="Vector" d="M8.62 42.16C8.31 41.9 7.91 41.75 7.5 41.75C7.29 41.75 7.09 41.78 6.9 41.85C6.71 41.92 6.53 42.03 6.38 42.16C6.22 42.31 6.08 42.49 6 42.7C5.9 42.93 5.85 43.18 5.85 43.43L5.85 47.07C5.84 47.33 5.89 47.58 6 47.81C6.09 48.01 6.22 48.18 6.38 48.32C6.53 48.46 6.71 48.57 6.9 48.64C7.09 48.71 7.29 48.75 7.5 48.75C7.7 48.75 7.9 48.71 8.09 48.64C8.28 48.57 8.47 48.46 8.62 48.32C8.78 48.18 8.91 48.01 9 47.81C9.1 47.58 9.15 47.33 9.14 47.07L9.14 43.43C9.15 43.18 9.1 42.93 9 42.7C8.91 42.5 8.78 42.31 8.62 42.16ZM8.16 47.07C8.17 47.17 8.16 47.26 8.12 47.36C8.09 47.45 8.03 47.53 7.96 47.6C7.83 47.71 7.67 47.77 7.5 47.77C7.33 47.77 7.16 47.71 7.03 47.6C6.96 47.53 6.91 47.45 6.87 47.36C6.84 47.26 6.82 47.17 6.83 47.07L6.83 43.43C6.82 43.33 6.84 43.24 6.87 43.14C6.91 43.05 6.96 42.97 7.03 42.9C7.16 42.79 7.33 42.73 7.5 42.73C7.67 42.73 7.83 42.79 7.96 42.9C8.03 42.97 8.09 43.05 8.12 43.14C8.16 43.24 8.17 43.33 8.16 43.43L8.16 47.07Z" fill="#AFB1B8" fill-opacity="1.000000" fill-rule="nonzero"/>
	<path id="Vector" d="M16.36 48.69L16.36 41.81L15.41 41.81L14.16 45.45L14.14 45.45L12.88 41.81L11.93 41.81L11.93 48.69L12.92 48.69L12.92 44.5L12.93 44.5L13.9 47.47L14.39 47.47L15.36 44.5L15.38 44.5L15.38 48.69L16.36 48.69Z" fill="#AFB1B8" fill-opacity="1.000000" fill-rule="nonzero"/>
	<path id="Vector" d="M21.95 42.29C21.8 42.12 21.61 41.99 21.4 41.91C21.17 41.84 20.93 41.8 20.68 41.81L19.22 41.81L19.22 48.69L20.2 48.69L20.2 46L20.71 46C21.01 46.02 21.32 45.95 21.59 45.82C21.82 45.69 22 45.51 22.13 45.29C22.25 45.11 22.32 44.9 22.36 44.69C22.4 44.43 22.41 44.17 22.41 43.91C22.42 43.58 22.39 43.24 22.31 42.92C22.25 42.68 22.12 42.47 21.95 42.29ZM21.45 44.39C21.44 44.51 21.41 44.64 21.36 44.75C21.3 44.85 21.21 44.94 21.1 44.99C20.96 45.05 20.8 45.08 20.64 45.08L20.19 45.08L20.19 42.73L20.7 42.73C20.85 42.73 21 42.76 21.14 42.82C21.24 42.88 21.32 42.97 21.37 43.07C21.42 43.2 21.45 43.33 21.46 43.46C21.46 43.6 21.46 43.76 21.46 43.92C21.46 44.08 21.47 44.24 21.46 44.39L21.45 44.39Z" fill="#AFB1B8" fill-opacity="1.000000" fill-rule="nonzero"/>
	<path id="Vector" d="M26.6 41.81L25.8 41.81L24.28 48.69L25.26 48.69L25.55 47.21L26.89 47.21L27.18 48.69L28.16 48.69L26.6 41.81ZM25.7 46.28L26.18 43.78L26.2 43.78L26.68 46.28L25.7 46.28Z" fill="#AFB1B8" fill-opacity="1.000000" fill-rule="nonzero"/>
	<path id="Vector" d="M32.94 45.96L32.93 45.96L31.44 41.81L30.5 41.81L30.5 48.69L31.48 48.69L31.48 44.55L31.5 44.55L33 48.69L33.93 48.69L33.93 41.81L32.94 41.81L32.94 45.96Z" fill="#AFB1B8" fill-opacity="1.000000" fill-rule="nonzero"/>
	<path id="Vector" d="M38.94 41.81L38.15 44.54L38.13 44.54L37.34 41.81L36.3 41.81L37.65 45.78L37.65 48.69L38.63 48.69L38.63 45.78L39.98 41.81L38.94 41.81Z" fill="#AFB1B8" fill-opacity="1.000000" fill-rule="nonzero"/>
	<path id="Vector" d="M0 50.64L0.47 50.64L0.47 51.97L0.79 51.97L0.79 50.64L1.26 50.64L1.26 50.37L0 50.37L0 50.64Z" fill="#AFB1B8" fill-opacity="1.000000" fill-rule="nonzero"/>
	<path id="Vector" d="M3.97 50.37L3.35 51.97L3.69 51.97L3.82 51.6L4.46 51.6L4.6 51.97L4.95 51.97L4.31 50.37L3.97 50.37ZM3.92 51.33L4.14 50.74L4.36 51.33L3.92 51.33Z" fill="#AFB1B8" fill-opacity="1.000000" fill-rule="nonzero"/>
	<path id="Vector" d="M7.9 51.38L8.27 51.38L8.27 51.58C8.16 51.67 8.03 51.72 7.89 51.72C7.83 51.72 7.76 51.71 7.7 51.68C7.65 51.66 7.59 51.62 7.55 51.57C7.47 51.44 7.43 51.3 7.43 51.15C7.43 50.79 7.59 50.61 7.9 50.61C7.98 50.61 8.06 50.63 8.12 50.67C8.19 50.72 8.24 50.79 8.26 50.87L8.57 50.81C8.51 50.49 8.28 50.34 7.9 50.34C7.69 50.33 7.49 50.41 7.34 50.54C7.26 50.62 7.19 50.72 7.15 50.83C7.11 50.93 7.1 51.05 7.11 51.16C7.1 51.38 7.17 51.59 7.31 51.76C7.39 51.84 7.48 51.9 7.59 51.94C7.69 51.98 7.81 52 7.92 51.99C8.17 52 8.41 51.91 8.6 51.74L8.6 51.11L7.9 51.11L7.9 51.38Z" fill="#AFB1B8" fill-opacity="1.000000" fill-rule="nonzero"/>
	<path id="Vector" d="M11.92 50.37L11.59 50.37L11.59 51.97L12.71 51.97L12.71 51.7L11.92 51.7L11.92 50.37Z" fill="#AFB1B8" fill-opacity="1.000000" fill-rule="nonzero"/>
	<path id="Vector" d="M14.99 50.37L15.31 50.37L15.31 51.97L14.99 51.97L14.99 50.37Z" fill="#AFB1B8" fill-opacity="1.000000" fill-rule="evenodd"/>
	<path id="Vector" d="M18.63 51.44L17.98 50.37L17.66 50.37L17.66 51.97L17.96 51.97L17.96 50.92L18.61 51.97L18.93 51.97L18.93 50.37L18.63 50.37L18.63 51.44Z" fill="#AFB1B8" fill-opacity="1.000000" fill-rule="nonzero"/>
	<path id="Vector" d="M21.63 51.26L22.43 51.26L22.43 50.99L21.63 50.99L21.63 50.64L22.49 50.64L22.49 50.37L21.31 50.37L21.31 51.97L22.52 51.97L22.52 51.7L21.63 51.7L21.63 51.26Z" fill="#AFB1B8" fill-opacity="1.000000" fill-rule="nonzero"/>
	<path id="Vector" d="M28.91 51L28.28 51L28.28 50.37L27.96 50.37L27.96 51.97L28.28 51.97L28.28 51.27L28.91 51.27L28.91 51.97L29.23 51.97L29.23 50.37L28.91 50.37L28.91 51Z" fill="#AFB1B8" fill-opacity="1.000000" fill-rule="nonzero"/>
	<path id="Vector" d="M31.93 51.26L32.72 51.26L32.72 50.99L31.93 50.99L31.93 50.64L32.79 50.64L32.79 50.37L31.6 50.37L31.6 51.97L32.82 51.97L32.82 51.7L31.93 51.7L31.93 51.26Z" fill="#AFB1B8" fill-opacity="1.000000" fill-rule="nonzero"/>
	<path id="Vector" d="M36.02 51.26C36.3 51.22 36.44 51.07 36.44 50.82C36.45 50.75 36.44 50.68 36.41 50.62C36.38 50.56 36.34 50.5 36.28 50.46C36.14 50.39 35.97 50.36 35.81 50.37L35.14 50.37L35.14 51.97L35.46 51.97L35.46 51.3L35.52 51.3C35.59 51.29 35.66 51.31 35.72 51.33C35.77 51.36 35.81 51.4 35.83 51.45L36.18 51.96L36.57 51.96L36.37 51.65C36.29 51.49 36.16 51.36 36.02 51.26ZM35.69 51.04L35.46 51.04L35.46 50.64L35.71 50.64C35.82 50.63 35.93 50.64 36.04 50.68C36.06 50.7 36.08 50.72 36.09 50.75C36.1 50.78 36.11 50.81 36.11 50.84C36.1 50.88 36.1 50.91 36.08 50.93C36.07 50.96 36.05 50.98 36.02 51C35.92 51.04 35.8 51.05 35.69 51.04Z" fill="#AFB1B8" fill-opacity="1.000000" fill-rule="nonzero"/>
	<path id="Vector" d="M39.1 51.26L39.9 51.26L39.9 50.99L39.1 50.99L39.1 50.64L39.96 50.64L39.96 50.37L38.78 50.37L38.78 51.97L40 51.97L40 51.7L39.1 51.7L39.1 51.26Z" fill="#AFB1B8" fill-opacity="1.000000" fill-rule="nonzero"/>
</svg>
