<svg width="89.000000" height="46.000000" viewBox="0 0 89 46" fill="none" xmlns="http://www.w3.org/2000/svg" xmlns:xlink="http://www.w3.org/1999/xlink">
	<desc>
			Created with Pixso.
	</desc>
	<defs/>
	<path id="Vector" d="M44.74 21.35C44.32 20.74 44.12 20.02 44.17 19.29L44.17 16.31C44.17 15.39 44.35 14.7 44.73 14.22C45.11 13.75 45.76 13.51 46.68 13.51C47.55 13.51 48.16 13.72 48.52 14.12C48.92 14.64 49.11 15.27 49.07 15.91L49.07 16.61L47.52 16.61L47.52 15.9C47.53 15.66 47.51 15.43 47.48 15.2C47.45 15.04 47.38 14.9 47.25 14.79C47.1 14.67 46.9 14.61 46.69 14.63C46.48 14.61 46.27 14.67 46.1 14.8C45.97 14.92 45.88 15.08 45.85 15.25C45.8 15.5 45.78 15.74 45.79 15.99L45.79 19.61C45.76 19.96 45.83 20.31 45.99 20.63C46.06 20.73 46.17 20.82 46.29 20.87C46.42 20.93 46.56 20.95 46.69 20.93C46.89 20.95 47.09 20.89 47.24 20.77C47.37 20.65 47.45 20.49 47.47 20.33C47.51 20.09 47.52 19.84 47.52 19.6L47.52 18.87L49.07 18.87L49.07 19.54C49.11 20.2 48.92 20.86 48.53 21.41C48.18 21.86 47.57 22.08 46.68 22.08C45.79 22.08 45.12 21.84 44.74 21.35Z" fill="#AFB1B8" fill-opacity="1.000000" fill-rule="nonzero"/>
	<path id="Vector" d="M51.18 21.38C50.79 20.91 50.59 20.24 50.59 19.34L50.59 16.21C50.59 15.32 50.79 14.65 51.18 14.19C51.57 13.74 52.23 13.51 53.14 13.51C54.05 13.51 54.7 13.74 55.09 14.19C55.48 14.65 55.68 15.32 55.68 16.21L55.68 19.34C55.68 20.23 55.48 20.91 55.09 21.38C54.69 21.84 54.04 22.08 53.14 22.08C52.24 22.08 51.58 21.84 51.18 21.38ZM53.86 20.63C54 20.34 54.07 20.02 54.05 19.7L54.05 15.86C54.07 15.54 54 15.23 53.87 14.95C53.79 14.84 53.68 14.75 53.55 14.7C53.42 14.64 53.28 14.62 53.14 14.64C53 14.62 52.86 14.64 52.73 14.7C52.6 14.75 52.49 14.84 52.41 14.95C52.27 15.23 52.21 15.54 52.23 15.86L52.23 19.72C52.21 20.04 52.27 20.35 52.41 20.64C52.5 20.74 52.62 20.82 52.74 20.87C52.87 20.93 53 20.96 53.14 20.96C53.28 20.96 53.41 20.93 53.54 20.87C53.66 20.82 53.77 20.74 53.86 20.64L53.86 20.63Z" fill="#AFB1B8" fill-opacity="1.000000" fill-rule="nonzero"/>
	<path id="Vector" d="M57.55 13.61L59.21 13.61L60.47 19.39L61.75 13.61L63.37 13.61L63.53 21.96L62.33 21.96L62.21 16.15L60.97 21.96L60.01 21.96L58.73 16.13L58.61 21.96L57.39 21.96L57.55 13.61Z" fill="#AFB1B8" fill-opacity="1.000000" fill-rule="nonzero"/>
	<path id="Vector" d="M65.4 13.61L68 13.61C69.49 13.61 70.24 14.4 70.24 15.98C70.24 17.49 69.45 18.25 67.88 18.25L66.99 18.25L66.99 21.96L65.39 21.96L65.4 13.61ZM67.62 17.18C67.78 17.2 67.94 17.18 68.09 17.14C68.24 17.09 68.38 17.01 68.5 16.91C68.68 16.63 68.76 16.3 68.73 15.97C68.74 15.71 68.71 15.46 68.65 15.21C68.63 15.13 68.59 15.05 68.54 14.98C68.48 14.91 68.41 14.86 68.33 14.81C68.11 14.71 67.87 14.67 67.62 14.68L67 14.68L67 17.18L67.62 17.18Z" fill="#AFB1B8" fill-opacity="1.000000" fill-rule="nonzero"/>
	<path id="Vector" d="M72.55 13.61L74.27 13.61L76.04 21.96L74.54 21.96L74.2 20.03L72.66 20.03L72.3 21.96L70.79 21.96L72.55 13.61ZM74.02 19.07L73.42 15.56L72.82 19.07L74.02 19.07Z" fill="#AFB1B8" fill-opacity="1.000000" fill-rule="nonzero"/>
	<path id="Vector" d="M77.46 13.61L78.59 13.61L80.73 18.37L80.73 13.61L82.06 13.61L82.06 21.96L81 21.96L78.84 16.99L78.84 21.96L77.46 21.96L77.46 13.61Z" fill="#AFB1B8" fill-opacity="1.000000" fill-rule="nonzero"/>
	<path id="Vector" d="M85.18 18.78L83.39 13.62L84.9 13.62L85.99 16.93L87.01 13.62L88.48 13.62L86.72 18.78L86.72 21.96L85.18 21.96L85.18 18.78Z" fill="#AFB1B8" fill-opacity="1.000000" fill-rule="nonzero"/>
	<path id="Vector" d="M47.21 25.61L47.21 26.05L45.9 26.05L45.9 29.45L45.35 29.45L45.35 26.05L44.04 26.05L44.04 25.61L47.21 25.61Z" fill="#AFB1B8" fill-opacity="1.000000" fill-rule="nonzero"/>
	<path id="Vector" d="M51.31 29.45L50.89 29.45C50.84 29.45 50.8 29.44 50.77 29.41C50.74 29.39 50.71 29.36 50.7 29.32L50.32 28.41L48.5 28.41L48.13 29.32C48.12 29.36 48.1 29.4 48.07 29.43C48.04 29.45 47.99 29.46 47.95 29.46L47.53 29.46L49.13 25.63L49.69 25.63L51.31 29.45ZM48.66 28.02L50.17 28.02L49.53 26.46C49.48 26.35 49.44 26.23 49.41 26.1C49.39 26.18 49.37 26.25 49.35 26.31L49.29 26.47L48.66 28.02Z" fill="#AFB1B8" fill-opacity="1.000000" fill-rule="nonzero"/>
	<path id="Vector" d="M54.07 29.07C54.17 29.07 54.27 29.07 54.37 29.07C54.46 29.06 54.55 29.05 54.63 29.02C54.71 29.01 54.78 28.98 54.86 28.95C54.93 28.93 55 28.89 55.07 28.86L55.07 28L54.43 28C54.42 28 54.4 28 54.39 27.99C54.37 27.99 54.36 27.98 54.35 27.97C54.34 27.96 54.33 27.95 54.32 27.94C54.32 27.92 54.31 27.91 54.32 27.9L54.32 27.6L55.56 27.6L55.56 29.07C55.46 29.14 55.35 29.2 55.24 29.25C55.12 29.31 55 29.35 54.88 29.39C54.75 29.42 54.62 29.45 54.48 29.46C54.33 29.48 54.17 29.49 54.01 29.49C53.74 29.49 53.46 29.44 53.21 29.35C52.97 29.25 52.75 29.12 52.57 28.95C52.39 28.77 52.25 28.56 52.15 28.34C52.05 28.08 52 27.81 52 27.54C52 27.27 52.05 27 52.15 26.74C52.24 26.52 52.38 26.31 52.56 26.14C52.74 25.96 52.96 25.83 53.2 25.74C53.48 25.64 53.77 25.59 54.06 25.6C54.21 25.6 54.36 25.61 54.51 25.63C54.64 25.65 54.77 25.68 54.89 25.73C55 25.77 55.11 25.82 55.21 25.88C55.31 25.94 55.4 26 55.49 26.08L55.33 26.31C55.32 26.34 55.3 26.35 55.28 26.37C55.26 26.38 55.24 26.39 55.21 26.39C55.17 26.39 55.14 26.38 55.11 26.36C55.06 26.33 55.01 26.3 54.95 26.27C54.88 26.23 54.81 26.19 54.74 26.16C54.64 26.13 54.54 26.1 54.44 26.08C54.31 26.05 54.17 26.04 54.04 26.04C53.82 26.04 53.61 26.08 53.42 26.15C53.24 26.22 53.08 26.32 52.95 26.45C52.81 26.59 52.71 26.75 52.65 26.93C52.51 27.35 52.51 27.79 52.65 28.21C52.72 28.39 52.83 28.55 52.97 28.69C53.1 28.82 53.26 28.93 53.44 28.99C53.64 29.06 53.86 29.09 54.07 29.07Z" fill="#AFB1B8" fill-opacity="1.000000" fill-rule="nonzero"/>
	<path id="Vector" d="M59.18 29.01L60.93 29.01L60.93 29.45L58.64 29.45L58.64 25.61L59.19 25.61L59.18 29.01Z" fill="#AFB1B8" fill-opacity="1.000000" fill-rule="nonzero"/>
	<path id="Vector" d="M62.75 29.45L62.2 29.45L62.2 25.61L62.75 25.61L62.75 29.45Z" fill="#AFB1B8" fill-opacity="1.000000" fill-rule="nonzero"/>
	<path id="Vector" d="M64.79 25.63C64.82 25.65 64.85 25.67 64.87 25.7L67.21 28.59C67.21 28.55 67.21 28.5 67.21 28.45C67.21 28.41 67.21 28.37 67.21 28.33L67.21 25.6L67.69 25.6L67.69 29.45L67.42 29.45C67.38 29.45 67.33 29.44 67.3 29.43C67.26 29.41 67.24 29.38 67.21 29.35L64.87 26.47C64.87 26.51 64.87 26.55 64.87 26.6C64.87 26.64 64.87 26.68 64.87 26.72L64.87 29.45L64.41 29.45L64.41 25.61L64.7 25.61C64.73 25.61 64.76 25.62 64.79 25.63Z" fill="#AFB1B8" fill-opacity="1.000000" fill-rule="nonzero"/>
	<path id="Vector" d="M71.73 25.61L71.73 26.04L69.79 26.04L69.79 27.3L71.36 27.3L71.36 27.71L69.79 27.71L69.79 29.02L71.73 29.02L71.73 29.44L69.22 29.44L69.22 25.61L71.73 25.61Z" fill="#AFB1B8" fill-opacity="1.000000" fill-rule="nonzero"/>
	<path id="Vector" d="M14.3 1.95L38.63 8.49L38.63 31.41L14.3 24.87L14.3 1.95ZM12.74 0L12.74 25.99L40.19 33.37L40.19 7.38L12.74 0Z" fill="#AFB1B8" fill-opacity="1.000000" fill-rule="nonzero"/>
	<path id="Vector" d="M27.45 45.44L0 38.05L0 12.06L27.45 19.44L27.45 45.44Z" fill="#AFB1B8" fill-opacity="1.000000" fill-rule="nonzero"/>
	<path id="Vector" d="M13.19 1.65L37.21 8.11L27 17.79L2.98 11.32L13.19 1.65ZM12.74 0L0 12.06L27.45 19.44L40.19 7.38L12.74 0Z" fill="#AFB1B8" fill-opacity="1.000000" fill-rule="nonzero"/>
	<path id="Vector" d="M29 43.97L40.19 33.37L29 30.36L29 43.97Z" fill="#AFB1B8" fill-opacity="1.000000" fill-rule="nonzero"/>
</svg>
