<svg width="41.000000" height="43.000000" viewBox="0 0 41 43" fill="none" xmlns="http://www.w3.org/2000/svg" xmlns:xlink="http://www.w3.org/1999/xlink">
	<desc>
			Created with Pixso.
	</desc>
	<defs/>
	<path id="Vector" d="M6.34 41.79C6.36 41.79 6.37 41.79 6.38 41.8C6.4 41.81 6.41 41.81 6.42 41.82L6.63 42.04C6.47 42.21 6.27 42.35 6.05 42.45C5.79 42.55 5.51 42.6 5.23 42.6C4.96 42.6 4.7 42.55 4.46 42.46C4.23 42.37 4.04 42.24 3.87 42.07C3.71 41.9 3.58 41.69 3.5 41.47C3.41 41.23 3.36 40.97 3.37 40.71C3.36 40.44 3.41 40.18 3.51 39.94C3.6 39.71 3.73 39.51 3.91 39.34C4.08 39.17 4.29 39.04 4.52 38.95C4.78 38.86 5.05 38.81 5.32 38.81C5.57 38.81 5.82 38.85 6.06 38.94C6.26 39.02 6.45 39.14 6.61 39.28L6.44 39.51C6.43 39.53 6.41 39.54 6.39 39.55C6.37 39.57 6.35 39.57 6.32 39.57C6.3 39.57 6.27 39.56 6.25 39.55L6.16 39.49L6.03 39.41C5.97 39.38 5.92 39.35 5.86 39.33C5.78 39.31 5.7 39.28 5.62 39.27C5.52 39.25 5.42 39.24 5.32 39.25C5.12 39.24 4.93 39.28 4.75 39.35C4.58 39.41 4.42 39.51 4.3 39.64C4.17 39.77 4.07 39.93 4.01 40.1C3.94 40.29 3.9 40.5 3.9 40.71C3.9 40.92 3.93 41.13 4.01 41.32C4.07 41.49 4.17 41.65 4.29 41.78C4.41 41.91 4.56 42 4.72 42.07C4.89 42.13 5.07 42.17 5.25 42.16C5.35 42.17 5.46 42.16 5.56 42.15C5.73 42.13 5.9 42.07 6.04 41.98C6.11 41.94 6.18 41.88 6.24 41.83C6.27 41.8 6.3 41.79 6.34 41.79Z" fill="#AFB1B8" fill-opacity="1.000000" fill-rule="nonzero"/>
	<path id="Vector" d="M12.28 40.71C12.29 40.97 12.24 41.22 12.14 41.47C12.06 41.69 11.93 41.89 11.76 42.06C11.58 42.23 11.38 42.36 11.15 42.45C10.64 42.63 10.09 42.63 9.58 42.45C9.36 42.36 9.15 42.23 8.98 42.06C8.81 41.89 8.68 41.68 8.59 41.46C8.4 40.97 8.4 40.43 8.59 39.93C8.68 39.71 8.81 39.51 8.98 39.33C9.15 39.17 9.36 39.04 9.58 38.96C10.09 38.77 10.64 38.77 11.15 38.96C11.38 39.05 11.58 39.18 11.75 39.35C11.92 39.52 12.06 39.72 12.14 39.94C12.24 40.18 12.29 40.44 12.28 40.71ZM11.74 40.71C11.75 40.5 11.71 40.29 11.64 40.09C11.59 39.92 11.49 39.77 11.37 39.63C11.25 39.51 11.1 39.41 10.93 39.35C10.57 39.21 10.16 39.21 9.8 39.35C9.63 39.41 9.48 39.51 9.36 39.63C9.24 39.77 9.14 39.92 9.08 40.09C8.95 40.49 8.95 40.92 9.08 41.32C9.14 41.49 9.24 41.64 9.36 41.78C9.48 41.9 9.63 42 9.8 42.06C10.16 42.19 10.57 42.19 10.93 42.06C11.1 42 11.25 41.9 11.37 41.78C11.49 41.64 11.59 41.49 11.64 41.32C11.71 41.12 11.75 40.91 11.74 40.71Z" fill="#AFB1B8" fill-opacity="1.000000" fill-rule="nonzero"/>
	<path id="Vector" d="M16.34 41.35L16.39 41.49C16.41 41.44 16.43 41.39 16.45 41.35C16.47 41.3 16.49 41.26 16.52 41.21L17.83 38.94C17.86 38.9 17.88 38.87 17.9 38.87C17.94 38.86 17.98 38.85 18.01 38.85L18.4 38.85L18.4 42.56L17.94 42.56L17.94 39.83C17.94 39.8 17.94 39.76 17.94 39.72C17.94 39.68 17.94 39.63 17.94 39.59L16.62 41.9C16.6 41.93 16.58 41.96 16.54 41.98C16.51 42 16.47 42.02 16.43 42.01L16.35 42.01C16.31 42.02 16.27 42 16.24 41.98C16.21 41.96 16.18 41.93 16.16 41.9L14.8 39.58C14.8 39.62 14.8 39.66 14.8 39.71C14.8 39.75 14.8 39.79 14.8 39.83L14.8 42.55L14.36 42.55L14.36 38.85L14.75 38.85C14.78 38.85 14.82 38.86 14.85 38.87C14.89 38.88 14.91 38.91 14.93 38.94L16.27 41.22C16.3 41.26 16.32 41.3 16.34 41.35Z" fill="#AFB1B8" fill-opacity="1.000000" fill-rule="nonzero"/>
	<path id="Vector" d="M21.28 41.16L21.28 42.55L20.77 42.55L20.77 38.85L21.91 38.85C22.13 38.85 22.35 38.88 22.56 38.93C22.72 38.98 22.88 39.06 23.01 39.16C23.12 39.26 23.21 39.39 23.27 39.53C23.33 39.68 23.36 39.84 23.35 40C23.36 40.16 23.32 40.32 23.26 40.47C23.2 40.62 23.1 40.74 22.98 40.84C22.85 40.95 22.69 41.04 22.52 41.09C22.32 41.15 22.11 41.18 21.9 41.17L21.28 41.16ZM21.28 40.77L21.9 40.77C22.04 40.77 22.17 40.75 22.3 40.71C22.41 40.68 22.51 40.62 22.59 40.55C22.67 40.48 22.73 40.4 22.77 40.31C22.81 40.21 22.83 40.1 22.83 40C22.83 39.89 22.82 39.79 22.78 39.69C22.74 39.6 22.68 39.51 22.6 39.44C22.4 39.3 22.15 39.22 21.9 39.24L21.28 39.24L21.28 40.77Z" fill="#AFB1B8" fill-opacity="1.000000" fill-rule="nonzero"/>
	<path id="Vector" d="M28.2 42.56L27.79 42.56C27.75 42.56 27.71 42.55 27.68 42.52C27.65 42.5 27.62 42.47 27.61 42.44L27.26 41.54L25.5 41.54L25.14 42.44C25.13 42.47 25.1 42.5 25.08 42.52C25.04 42.54 25 42.56 24.96 42.56L24.55 42.56L26.1 38.85L26.63 38.85L28.2 42.56ZM25.65 41.18L27.1 41.18L26.49 39.67C26.44 39.56 26.4 39.44 26.37 39.33L26.31 39.52C26.3 39.58 26.27 39.63 26.26 39.68L25.65 41.18Z" fill="#AFB1B8" fill-opacity="1.000000" fill-rule="nonzero"/>
	<path id="Vector" d="M30.42 38.87C30.45 38.89 30.48 38.91 30.5 38.94L32.75 41.73C32.75 41.68 32.75 41.64 32.75 41.6C32.75 41.56 32.75 41.51 32.75 41.48L32.75 38.85L33.21 38.85L33.21 42.56L32.95 42.56C32.91 42.56 32.88 42.55 32.84 42.53C32.81 42.52 32.78 42.49 32.76 42.47L30.51 39.68C30.52 39.72 30.52 39.76 30.51 39.8C30.51 39.85 30.51 39.88 30.51 39.92L30.51 42.56L30.05 42.56L30.05 38.85L30.33 38.85C30.36 38.85 30.39 38.86 30.42 38.87Z" fill="#AFB1B8" fill-opacity="1.000000" fill-rule="nonzero"/>
	<path id="Vector" d="M37 41.08L37 42.55L36.48 42.55L36.48 41.08L35.06 38.85L35.52 38.85C35.56 38.85 35.6 38.86 35.63 38.89C35.66 38.91 35.68 38.94 35.7 38.97L36.59 40.41C36.63 40.47 36.66 40.52 36.68 40.58C36.71 40.63 36.73 40.68 36.75 40.74L36.82 40.58C36.84 40.52 36.87 40.46 36.9 40.41L37.78 38.96C37.8 38.93 37.82 38.9 37.85 38.88C37.88 38.85 37.92 38.84 37.96 38.84L38.42 38.84L37 41.08Z" fill="#AFB1B8" fill-opacity="1.000000" fill-rule="nonzero"/>
	<path id="Vector" d="M16.08 32.64C16.3 32.67 16.53 32.69 16.76 32.71C20.23 31.23 23.17 28.81 25.2 25.75C27.24 22.69 28.28 19.12 28.2 15.5L24.37 11.86C25.15 15.71 24.79 19.7 23.32 23.37C21.86 27.04 19.35 30.25 16.08 32.64Z" fill="#AFB1B8" fill-opacity="1.000000" fill-rule="nonzero"/>
	<path id="Vector" d="M14.72 32.47L14.82 32.49C18.31 30.11 20.98 26.78 22.47 22.94C23.96 19.1 24.2 14.93 23.17 10.95L17.72 5.76C19.93 10.03 20.82 14.8 20.28 19.53C19.75 24.26 17.82 28.75 14.72 32.47Z" fill="#AFB1B8" fill-opacity="1.000000" fill-rule="nonzero"/>
	<path id="Vector" d="M33.19 19.78C32.27 23.76 30.02 27.35 26.78 30.01C25.84 30.8 24.82 31.49 23.74 32.1C26.37 31.36 28.79 30.05 30.82 28.28C32.84 26.51 34.41 24.32 35.4 21.88L33.19 19.78Z" fill="#AFB1B8" fill-opacity="1.000000" fill-rule="nonzero"/>
	<path id="Vector" d="M32.32 19.2L29.18 16.2C29.12 19.62 28.1 22.95 26.23 25.87C24.35 28.78 21.69 31.17 18.53 32.77L18.54 32.77C19.25 32.77 19.95 32.73 20.65 32.65C23.61 31.5 26.23 29.67 28.27 27.32C30.3 24.97 31.7 22.18 32.32 19.2Z" fill="#AFB1B8" fill-opacity="1.000000" fill-rule="nonzero"/>
	<path id="Vector" d="M15.17 3.58L11.42 0C8.06 1.23 5.18 3.4 3.14 6.22C1.1 9.05 0.01 12.39 0 15.82L0 15.82C0.01 19.6 1.35 23.28 3.8 26.26C6.25 29.24 9.67 31.36 13.53 32.27C16.97 28.28 18.98 23.34 19.28 18.18C19.58 13.02 18.14 7.9 15.17 3.58Z" fill="#AFB1B8" fill-opacity="1.000000" fill-rule="nonzero"/>
	<path id="Vector" d="M41 18.64C40.98 14.15 39.1 9.85 35.77 6.67C32.43 3.49 27.92 1.7 23.2 1.69C21.02 1.69 18.86 2.07 16.83 2.82L39.81 24.71C40.59 22.78 41 20.72 41 18.64Z" fill="#AFB1B8" fill-opacity="1.000000" fill-rule="nonzero"/>
</svg>
