<!-- Generated by IcoMoon.io -->
<svg version="1.1" xmlns="http://www.w3.org/2000/svg" width="40" height="32" viewBox="0 0 40 32">
<title>fifth</title>
<path fill="#afb1b8" d="M3.050 26.737c0.157 0.197 0.238 0.443 0.238 0.688 0.007 0.163-0.020 0.327-0.082 0.477-0.068 0.15-0.163 0.286-0.286 0.395-0.3 0.232-0.681 0.34-1.062 0.32h-1.859v-4.364h1.825c0.361-0.020 0.715 0.082 1.008 0.293 0.123 0.095 0.218 0.225 0.279 0.361 0.061 0.143 0.088 0.3 0.082 0.456 0.007 0.238-0.068 0.477-0.218 0.66-0.136 0.177-0.334 0.3-0.551 0.347 0.245 0.041 0.47 0.177 0.626 0.368zM0.865 26.083h0.783c0.177 0.014 0.354-0.041 0.497-0.15 0.054-0.054 0.102-0.116 0.129-0.191s0.041-0.157 0.034-0.232c0.007-0.082-0.007-0.157-0.034-0.232s-0.075-0.143-0.129-0.197c-0.15-0.109-0.327-0.163-0.511-0.143h-0.769v1.144zM2.22 27.752c0.061-0.054 0.109-0.123 0.143-0.197s0.048-0.163 0.041-0.245c0.007-0.082-0.014-0.17-0.041-0.245-0.034-0.075-0.088-0.143-0.15-0.204-0.15-0.109-0.34-0.163-0.531-0.157h-0.817v1.198h0.831c0.184 0.014 0.368-0.041 0.524-0.15z"></path>
<path fill="#afb1b8" d="M6.788 28.616l-1.021-1.709h-0.381v1.709h-0.872v-4.364h1.654c0.415-0.027 0.831 0.102 1.151 0.374 0.231 0.232 0.374 0.545 0.395 0.878 0.020 0.327-0.075 0.66-0.272 0.926-0.204 0.232-0.483 0.388-0.79 0.443l1.083 1.743h-0.946zM5.386 26.315h0.715c0.497 0 0.749-0.218 0.749-0.66 0.007-0.088-0.007-0.177-0.041-0.266-0.034-0.082-0.082-0.157-0.143-0.225-0.157-0.129-0.361-0.197-0.565-0.177h-0.722l0.007 1.328z"></path>
<path fill="#afb1b8" d="M11.568 27.738h-1.743l-0.306 0.878h-0.919l1.6-4.317h0.987l1.593 4.317h-0.912l-0.3-0.878zM11.329 27.077l-0.633-1.845-0.64 1.845h1.273z"></path>
<path fill="#afb1b8" d="M17.546 28.616h-0.865l-1.947-2.968v2.968h-0.865v-4.364h0.865l1.947 2.982v-2.982h0.865v4.364z"></path>
<path fill="#afb1b8" d="M22.495 27.568c-0.177 0.334-0.449 0.599-0.783 0.769-0.374 0.191-0.797 0.286-1.219 0.279h-1.546v-4.364h1.546c0.422-0.007 0.837 0.082 1.219 0.272 0.334 0.163 0.606 0.429 0.783 0.756 0.184 0.354 0.272 0.749 0.272 1.144 0 0.402-0.088 0.79-0.272 1.144zM21.508 27.466c0.245-0.293 0.381-0.66 0.381-1.042s-0.136-0.749-0.381-1.042c-0.3-0.259-0.694-0.395-1.089-0.368h-0.599v2.819h0.599c0.395 0.027 0.79-0.102 1.089-0.368z"></path>
<path fill="#afb1b8" d="M12.106 0c0 0 11.207 4.242 10.969 10.383v10.397c0 0-11.193-4.248-10.962-10.397l-0.007-10.383z"></path>
<path fill="#afb1b8" d="M33.048 18.342c2.117-1.457 4.562-2.363 7.122-2.628v-3.254c-2.948 1.137-5.44 3.207-7.122 5.883z"></path>
<path fill="#afb1b8" d="M31.782 19.323c1.729-3.5 4.732-6.196 8.388-7.544v-9.375c0 0-15.952 6.046-15.619 14.795v14.795c0 0 0.715-0.266 1.831-0.776 0-0.47 0-0.946 0.048-1.43 0.334-4.058 2.254-7.823 5.351-10.465z"></path>
<path fill="#afb1b8" d="M30.264 24.824c0.082-1.028 0.272-2.043 0.558-3.030-1.927 2.274-3.098 5.106-3.336 8.082-0.027 0.279-0.034 0.565-0.041 0.851 0.906-0.436 1.961-0.98 3.064-1.62-0.279-1.409-0.368-2.853-0.245-4.283z"></path>
<path fill="#afb1b8" d="M30.897 24.872c-0.109 1.3-0.041 2.601 0.197 3.881 4.357-2.614 9.253-6.659 9.069-11.554v-0.422c-3.118 0.347-6.032 1.716-8.293 3.888-0.531 1.348-0.858 2.764-0.974 4.208z"></path>
</svg>
