<!-- Generated by IcoMoon.io -->
<svg version="1.1" xmlns="http://www.w3.org/2000/svg" width="29" height="32" viewBox="0 0 29 32">
<title>first</title>
<path fill="#afb1b8" d="M3.84 0l4.672 4.422h13.050v12.352l4.678 4.429v-21.203h-22.4z"></path>
<path fill="#afb1b8" d="M0 4.237v20.602h21.76v-8.192l-13.107-12.403-8.653-0.006zM17.613 21.824h-14.17v-13.856h0.998v12.915h13.171v0.941z"></path>
<path fill="#afb1b8" d="M10.086 29.088q-0.019 0.070-0.019 0.154 0 0.173 0.070 0.301 0.051 0.090 0.128 0.166 0.019 0.013 0.045 0.032 0.192 0.147 0.499 0.147 0.25 0 0.454-0.102 0.064-0.038 0.128-0.083l0.128 0.154h0.435l-0.333-0.397q0.198-0.269 0.198-0.691h-0.333q0 0.205-0.070 0.378-0.013 0.019-0.019 0.045l-0.442-0.518 0.154-0.115q0.166-0.122 0.237-0.237 0.032-0.051 0.051-0.109 0.019-0.077 0.019-0.154 0-0.109-0.038-0.198t-0.122-0.166q-0.032-0.032-0.077-0.058-0.141-0.083-0.326-0.083-0.23 0-0.384 0.109-0.026 0.019-0.051 0.045-0.038 0.032-0.070 0.077-0.096 0.141-0.096 0.346 0 0.109 0.051 0.224 0.051 0.122 0.186 0.288-0.25 0.179-0.339 0.314-0.038 0.064-0.064 0.134zM14.566 29.587q0.147-0.186 0.173-0.474h-0.39q-0.032 0.243-0.147 0.352-0.122 0.102-0.352 0.102-0.154 0-0.262-0.070-0.070-0.045-0.128-0.122-0.128-0.198-0.128-0.563v-0.205q0-0.365 0.141-0.55 0.051-0.070 0.122-0.115 0.115-0.070 0.275-0.070 0.224 0 0.333 0.109 0.115 0.109 0.147 0.352h0.39q-0.032-0.32-0.205-0.518-0.026-0.032-0.058-0.058-0.032-0.032-0.064-0.051-0.218-0.154-0.544-0.154-0.237 0-0.422 0.090-0.038 0.019-0.070 0.038-0.058 0.038-0.109 0.083-0.134 0.122-0.218 0.294-0.115 0.25-0.115 0.57v0.211q0.006 0.314 0.115 0.55 0.083 0.179 0.218 0.294 0.045 0.038 0.102 0.077 0.032 0.019 0.064 0.032 0.186 0.096 0.416 0.096 0.358 0 0.582-0.173 0.019-0.019 0.038-0.032 0.051-0.045 0.096-0.096zM16.794 29.363q0.115-0.25 0.115-0.589v-0.122q0-0.333-0.115-0.589-0.090-0.192-0.243-0.314-0.045-0.038-0.090-0.070-0.045-0.026-0.090-0.045-0.179-0.083-0.403-0.083t-0.403 0.083q-0.045 0.019-0.090 0.051-0.045 0.026-0.083 0.058-0.16 0.128-0.25 0.333-0.122 0.25-0.122 0.582v0.128q0.006 0.326 0.122 0.576 0.090 0.192 0.23 0.314 0.051 0.038 0.102 0.077 0.051 0.032 0.109 0.058 0.173 0.077 0.384 0.077 0.224 0 0.41-0.090 0.045-0.019 0.083-0.045 0.051-0.032 0.096-0.070 0.147-0.128 0.237-0.32zM6.784 27.578l-0.518 1.082-0.525-1.082h-0.442l0.768 1.44v0.838h0.397v-0.838l0.762-1.44h-0.442zM7.443 29.856l0.186-0.531h0.883l0.186 0.531h0.41l-0.858-2.278h-0.358l-0.858 2.278h0.41zM10.771 28.448q-0.16-0.198-0.16-0.333 0-0.083 0.038-0.147 0.013-0.019 0.026-0.038 0.026-0.026 0.051-0.045 0.051-0.032 0.128-0.032 0.070 0 0.122 0.032 0.026 0.013 0.045 0.032 0.038 0.038 0.058 0.077 0.013 0.038 0.013 0.077 0 0.070-0.032 0.134-0.026 0.045-0.064 0.083l-0.051 0.038-0.173 0.122zM16.371 28.077q0.141 0.205 0.141 0.582v0.115q0 0.384-0.141 0.589-0.058 0.083-0.134 0.128-0.115 0.070-0.269 0.070-0.141 0-0.243-0.058-0.096-0.051-0.16-0.147-0.147-0.205-0.147-0.582v-0.128q0.006-0.365 0.147-0.57 0.064-0.090 0.154-0.141 0.109-0.058 0.25-0.058 0.147 0 0.256 0.064 0.083 0.051 0.147 0.134zM8.070 28.064l0.326 0.941h-0.659l0.333-0.941zM10.925 29.574q-0.051 0.006-0.102 0.006-0.141 0-0.237-0.064-0.019-0.013-0.038-0.032-0.032-0.032-0.058-0.070-0.045-0.077-0.045-0.186 0-0.038 0.006-0.070 0.032-0.141 0.179-0.256l0.051-0.032 0.499 0.582q-0.122 0.096-0.256 0.122z"></path>
</svg>
