<!-- Generated by IcoMoon.io -->
<svg version="1.1" xmlns="http://www.w3.org/2000/svg" width="60" height="32" viewBox="0 0 60 32">
<title>fourth</title>
<path fill="#2196f3" d="M9.22 9.548h0.007c1.682 0 3.044 1.325 3.044 2.969v0c0 1.637-1.362 2.969-3.044 2.969h-0.007c-1.682 0-3.044-1.332-3.044-2.969v0c0-1.645 1.362-2.969 3.044-2.969z"></path>
<path fill="#2196f3" d="M31.725 8.595c0-2.277-0.938-4.465-2.59-6.073-1.652-1.615-3.892-2.523-6.229-2.523v0c-2.344 0-4.584 0.908-6.236 2.523-1.652 1.607-2.59 3.795-2.59 6.073v12.569c0 0 17.645-1.92 17.645-12.569v0z"></path>
<path fill="#2196f3" d="M0 25.287c0 1.585 0.647 3.103 1.801 4.227 1.146 1.116 2.709 1.749 4.331 1.756 1.63-0.007 3.185-0.64 4.339-1.756 1.153-1.124 1.801-2.642 1.801-4.227v-8.744c0 0-12.272 1.332-12.272 8.744zM6.132 26.85c-0.313 0-0.625-0.089-0.893-0.26-0.26-0.171-0.469-0.417-0.588-0.707-0.119-0.283-0.156-0.603-0.089-0.9 0.060-0.305 0.208-0.588 0.439-0.804 0.223-0.223 0.506-0.372 0.819-0.432s0.64-0.030 0.93 0.089c0.298 0.119 0.543 0.32 0.722 0.58 0.179 0.253 0.268 0.558 0.268 0.871 0.007 0.201-0.037 0.409-0.119 0.603-0.082 0.186-0.194 0.357-0.35 0.506-0.149 0.149-0.32 0.26-0.521 0.342-0.194 0.082-0.402 0.119-0.618 0.119v-0.007z"></path>
<path fill="#2196f3" d="M21.648 26.486q0.164-0.357 0.164-0.826v-0.141q0-0.461-0.171-0.819-0.127-0.275-0.335-0.447-0.067-0.060-0.141-0.104-0.067-0.037-0.134-0.067-0.253-0.119-0.573-0.119-0.313 0-0.573 0.119-0.067 0.030-0.134 0.067-0.074 0.045-0.141 0.104-0.208 0.171-0.335 0.447-0.164 0.357-0.164 0.826v0.156q0 0.454 0.171 0.811 0.119 0.253 0.32 0.424 0.074 0.060 0.156 0.112 0.067 0.045 0.141 0.074 0.26 0.119 0.566 0.119 0.32 0 0.58-0.127 0.067-0.030 0.127-0.067 0.089-0.052 0.164-0.119 0.194-0.171 0.313-0.424zM23.873 26.143q0.060 0.082 0.060 0.201 0 0.097-0.045 0.171-0.030 0.052-0.089 0.097-0.127 0.089-0.365 0.089-0.365 0-0.521-0.179-0.104-0.127-0.104-0.342h-0.655q0 0.231 0.089 0.417 0.030 0.067 0.067 0.119 0.007 0.007 0.007 0.015 0.156 0.223 0.454 0.357t0.662 0.134q0.528 0 0.841-0.238 0.134-0.097 0.216-0.231 0.097-0.179 0.097-0.417 0-0.208-0.082-0.38-0.060-0.127-0.171-0.238-0.253-0.246-0.811-0.417-0.305-0.089-0.461-0.194-0.112-0.074-0.141-0.171-0.015-0.045-0.015-0.089 0-0.082 0.030-0.149 0.037-0.067 0.104-0.119 0.134-0.097 0.372-0.097 0.246 0 0.387 0.119 0.030 0.030 0.060 0.067 0.074 0.104 0.074 0.268h0.655q0-0.194-0.067-0.357-0.030-0.082-0.082-0.149-0.030-0.052-0.067-0.097-0.134-0.156-0.342-0.253-0.268-0.119-0.61-0.119-0.335 0-0.61 0.112-0.268 0.112-0.409 0.313-0.060 0.082-0.097 0.171-0.052 0.134-0.052 0.29 0 0.149 0.052 0.275 0.112 0.305 0.491 0.514 0.194 0.104 0.536 0.216 0.342 0.104 0.469 0.208 0.045 0.030 0.074 0.082zM49.414 26.143q0.060 0.082 0.060 0.201 0 0.097-0.045 0.171-0.030 0.052-0.089 0.097-0.127 0.089-0.365 0.089-0.365 0-0.521-0.179-0.104-0.127-0.104-0.342h-0.655q0 0.231 0.089 0.417 0.030 0.067 0.067 0.119 0 0.007 0.007 0.015 0.156 0.223 0.454 0.357t0.662 0.134q0.528 0 0.841-0.238 0.134-0.097 0.208-0.231 0.104-0.179 0.104-0.417 0-0.208-0.082-0.38-0.060-0.127-0.171-0.238-0.26-0.246-0.819-0.417-0.298-0.089-0.454-0.194-0.112-0.074-0.141-0.171-0.015-0.045-0.015-0.089 0-0.082 0.030-0.149 0.037-0.067 0.104-0.119 0.134-0.097 0.372-0.097 0.246 0 0.387 0.119 0.030 0.030 0.060 0.067 0.074 0.104 0.074 0.268h0.655q0-0.194-0.067-0.357-0.037-0.082-0.082-0.149-0.030-0.052-0.067-0.097-0.134-0.156-0.342-0.253-0.268-0.119-0.61-0.119-0.335 0-0.61 0.112-0.268 0.112-0.417 0.313-0.060 0.082-0.089 0.171-0.052 0.134-0.052 0.29 0 0.149 0.045 0.275 0.119 0.305 0.499 0.514 0.194 0.104 0.536 0.216 0.342 0.104 0.469 0.208 0.045 0.030 0.074 0.082zM17.414 25.883h1.25v-0.528h-1.25v-0.819h1.414v-0.536h-2.069v3.178h0.655v-1.295zM26.448 24.536h0.975v-0.536h-2.59v0.536h0.96v2.642h0.655v-2.642zM28.45 25.801h1.25v-0.514h-1.25v-0.752h1.466v-0.536h-2.121v3.178h2.128v-0.528h-1.474v-0.848zM30.958 26.017h0.521l0.595 1.161h0.707v-0.030l-0.692-1.295q0.29-0.134 0.432-0.35 0.134-0.216 0.134-0.543 0-0.32-0.149-0.536-0.060-0.097-0.156-0.171-0.305-0.253-0.863-0.253h-1.183v3.178h0.655v-1.161zM34.917 27.178v-1.116h0.58q0.558 0 0.878-0.275 0.112-0.089 0.186-0.208 0.134-0.216 0.134-0.521 0-0.246-0.089-0.447-0.022-0.052-0.052-0.104-0.045-0.074-0.097-0.134-0.134-0.149-0.32-0.238-0.275-0.134-0.633-0.134h-1.235v3.178h0.647zM37.805 25.801h1.25v-0.514h-1.25v-0.752h1.466v-0.536h-2.121v3.178h2.128v-0.528h-1.474v-0.848zM41.116 24.536h0.975v-0.536h-2.582v0.536h0.96v2.642h0.647v-2.642zM43.118 25.801h1.258v-0.514h-1.258v-0.752h1.474v-0.536h-2.128v3.178h2.128v-0.528h-1.474v-0.848zM45.633 26.017h0.521l0.595 1.161h0.7v-0.030l-0.685-1.295q0.283-0.134 0.424-0.35t0.141-0.543q0-0.32-0.149-0.536-0.067-0.097-0.156-0.171-0.305-0.253-0.871-0.253h-1.176v3.178h0.655v-1.161zM20.971 24.759q0.179 0.26 0.179 0.759v0.156q0 0.491-0.179 0.752-0.082 0.112-0.186 0.179-0.134 0.082-0.32 0.082t-0.32-0.082q-0.112-0.067-0.194-0.186-0.179-0.268-0.179-0.759v-0.149q0-0.499 0.179-0.752 0.082-0.119 0.186-0.179 0.134-0.082 0.32-0.082t0.327 0.082q0.104 0.067 0.186 0.179zM31.486 25.488h-0.528v-0.953h0.528q0.26 0 0.387 0.127 0.022 0.022 0.037 0.037 0.097 0.127 0.097 0.313 0 0.171-0.082 0.283-0.022 0.037-0.060 0.067 0 0-0.007 0.007-0.134 0.119-0.372 0.119zM35.505 25.526h-0.588v-0.99h0.603q0.194 0 0.327 0.097 0.030 0.022 0.052 0.045 0.030 0.037 0.052 0.074 0.082 0.127 0.082 0.305 0 0.186-0.082 0.298-0.022 0.030-0.052 0.052-0.134 0.119-0.394 0.119zM46.154 25.488h-0.521v-0.953h0.521q0.268 0 0.394 0.127 0.015 0.022 0.037 0.037 0.089 0.127 0.089 0.313 0 0.171-0.082 0.283-0.022 0.037-0.052 0.067-0.007 0-0.007 0.007-0.134 0.119-0.38 0.119z"></path>
</svg>
