<!-- Generated by IcoMoon.io -->
<svg version="1.1" xmlns="http://www.w3.org/2000/svg" width="62" height="32" viewBox="0 0 62 32">
<title>sixth</title>
<path fill="#afb1b8" d="M31.123 14.852c-0.292-0.424-0.431-0.925-0.397-1.433v-2.073c0-0.64 0.125-1.12 0.39-1.454 0.264-0.327 0.717-0.494 1.357-0.494 0.605 0 1.030 0.146 1.28 0.424 0.278 0.362 0.41 0.8 0.383 1.245v0.487h-1.078v-0.494c0.007-0.167-0.007-0.327-0.028-0.487-0.021-0.111-0.070-0.209-0.16-0.285-0.104-0.083-0.243-0.125-0.39-0.111-0.146-0.014-0.292 0.028-0.41 0.118-0.090 0.083-0.153 0.195-0.174 0.313-0.035 0.174-0.049 0.341-0.042 0.515v2.518c-0.021 0.243 0.028 0.487 0.139 0.71 0.049 0.070 0.125 0.132 0.209 0.167 0.090 0.042 0.188 0.056 0.278 0.042 0.139 0.014 0.278-0.028 0.383-0.111 0.090-0.083 0.146-0.195 0.16-0.306 0.028-0.167 0.035-0.341 0.035-0.508v-0.508h1.078v0.466c0.028 0.459-0.104 0.918-0.376 1.301-0.243 0.313-0.668 0.466-1.287 0.466s-1.085-0.167-1.35-0.508z"></path>
<path fill="#afb1b8" d="M35.603 14.873c-0.271-0.327-0.41-0.793-0.41-1.419v-2.177c0-0.619 0.139-1.085 0.41-1.405 0.271-0.313 0.73-0.473 1.363-0.473s1.085 0.16 1.357 0.473c0.271 0.32 0.41 0.786 0.41 1.405v2.177c0 0.619-0.139 1.092-0.41 1.419-0.278 0.32-0.73 0.487-1.357 0.487s-1.085-0.167-1.363-0.487zM37.468 14.351c0.097-0.202 0.146-0.424 0.132-0.647v-2.671c0.014-0.223-0.035-0.438-0.125-0.633-0.056-0.077-0.132-0.139-0.223-0.174-0.090-0.042-0.188-0.056-0.285-0.042-0.097-0.014-0.195 0-0.285 0.042-0.090 0.035-0.167 0.097-0.223 0.174-0.097 0.195-0.139 0.41-0.125 0.633v2.685c-0.014 0.223 0.028 0.438 0.125 0.64 0.063 0.070 0.146 0.125 0.23 0.16 0.090 0.042 0.181 0.063 0.278 0.063s0.188-0.021 0.278-0.063c0.083-0.035 0.16-0.090 0.223-0.16v-0.007z"></path>
<path fill="#afb1b8" d="M40.035 9.468h1.155l0.877 4.021 0.89-4.021h1.127l0.111 5.809h-0.835l-0.083-4.042-0.863 4.042h-0.668l-0.89-4.056-0.083 4.056h-0.849l0.111-5.809z"></path>
<path fill="#afb1b8" d="M45.496 9.468h1.809c1.037 0 1.558 0.55 1.558 1.649 0 1.050-0.55 1.579-1.642 1.579h-0.619v2.581h-1.113l0.007-5.809zM47.040 11.951c0.111 0.014 0.223 0 0.327-0.028 0.104-0.035 0.202-0.090 0.285-0.16 0.125-0.195 0.181-0.424 0.16-0.654 0.007-0.181-0.014-0.355-0.056-0.529-0.014-0.056-0.042-0.111-0.077-0.16-0.042-0.049-0.090-0.083-0.146-0.118-0.153-0.070-0.32-0.097-0.494-0.090h-0.431v1.739h0.431z"></path>
<path fill="#afb1b8" d="M50.47 9.468h1.197l1.231 5.809h-1.043l-0.237-1.343h-1.071l-0.25 1.343h-1.050l1.224-5.809zM51.492 13.266l-0.417-2.442-0.417 2.442h0.835z"></path>
<path fill="#afb1b8" d="M53.885 9.468h0.786l1.489 3.311v-3.311h0.925v5.809h-0.737l-1.503-3.457v3.457h-0.96v-5.809z"></path>
<path fill="#afb1b8" d="M59.256 13.064l-1.245-3.59h1.050l0.758 2.303 0.71-2.303h1.023l-1.224 3.59v2.212h-1.071v-2.212z"></path>
<path fill="#afb1b8" d="M32.842 17.816v0.306h-0.911v2.365h-0.383v-2.365h-0.911v-0.306h2.205z"></path>
<path fill="#afb1b8" d="M35.694 20.487h-0.292c-0.035 0-0.063-0.007-0.083-0.028-0.021-0.014-0.042-0.035-0.049-0.063l-0.264-0.633h-1.266l-0.257 0.633c-0.007 0.028-0.021 0.056-0.042 0.077-0.021 0.014-0.056 0.021-0.083 0.021h-0.292l1.113-2.664h0.39l1.127 2.657zM33.85 19.492h1.050l-0.445-1.085c-0.035-0.077-0.063-0.16-0.083-0.25-0.014 0.056-0.028 0.104-0.042 0.146l-0.042 0.111-0.438 1.078z"></path>
<path fill="#afb1b8" d="M37.614 20.223c0.070 0 0.139 0 0.209 0 0.063-0.007 0.125-0.014 0.181-0.035 0.056-0.007 0.104-0.028 0.16-0.049 0.049-0.014 0.097-0.042 0.146-0.063v-0.598h-0.445c-0.007 0-0.021 0-0.028-0.007-0.014 0-0.021-0.007-0.028-0.014s-0.014-0.014-0.021-0.021c0-0.014-0.007-0.021 0-0.028v-0.209h0.863v1.023c-0.070 0.049-0.146 0.090-0.223 0.125-0.083 0.042-0.167 0.070-0.25 0.097-0.090 0.021-0.181 0.042-0.278 0.049-0.104 0.014-0.216 0.021-0.327 0.021-0.188 0-0.383-0.035-0.557-0.097-0.167-0.070-0.32-0.16-0.445-0.278-0.125-0.125-0.223-0.271-0.292-0.424-0.070-0.181-0.104-0.369-0.104-0.557s0.035-0.376 0.104-0.557c0.063-0.153 0.16-0.299 0.285-0.417 0.125-0.125 0.278-0.216 0.445-0.278 0.195-0.070 0.397-0.104 0.598-0.097 0.104 0 0.209 0.007 0.313 0.021 0.090 0.014 0.181 0.035 0.264 0.070 0.077 0.028 0.153 0.063 0.223 0.104s0.132 0.083 0.195 0.139l-0.111 0.16c-0.007 0.021-0.021 0.028-0.035 0.042-0.014 0.007-0.028 0.014-0.049 0.014-0.028 0-0.049-0.007-0.070-0.021-0.035-0.021-0.070-0.042-0.111-0.063-0.049-0.028-0.097-0.056-0.146-0.077-0.070-0.021-0.139-0.042-0.209-0.056-0.090-0.021-0.188-0.028-0.278-0.028-0.153 0-0.299 0.028-0.431 0.077-0.125 0.049-0.237 0.118-0.327 0.209-0.097 0.097-0.167 0.209-0.209 0.334-0.097 0.292-0.097 0.598 0 0.89 0.049 0.125 0.125 0.237 0.223 0.334 0.090 0.090 0.202 0.167 0.327 0.209 0.139 0.049 0.292 0.070 0.438 0.056z"></path>
<path fill="#afb1b8" d="M41.169 20.181h1.217v0.306h-1.593v-2.671h0.383l-0.007 2.365z"></path>
<path fill="#afb1b8" d="M43.652 20.487h-0.383v-2.671h0.383v2.671z"></path>
<path fill="#afb1b8" d="M45.071 17.83c0.021 0.014 0.042 0.028 0.056 0.049l1.628 2.010c0-0.028 0-0.063 0-0.097 0-0.028 0-0.056 0-0.083v-1.899h0.334v2.678h-0.188c-0.028 0-0.063-0.007-0.083-0.014-0.028-0.014-0.042-0.035-0.063-0.056l-1.628-2.003c0 0.028 0 0.056 0 0.090 0 0.028 0 0.056 0 0.083v1.899h-0.32v-2.671h0.202c0.021 0 0.042 0.007 0.063 0.014z"></path>
<path fill="#afb1b8" d="M49.899 17.816v0.299h-1.35v0.877h1.092v0.285h-1.092v0.911h1.35v0.292h-1.746v-2.664h1.746z"></path>
<path fill="#afb1b8" d="M9.948 1.357l16.925 4.55v15.944l-16.925-4.55v-15.944zM8.863 0v18.080l19.096 5.134v-18.080l-19.096-5.134z"></path>
<path fill="#afb1b8" d="M19.096 31.61l-19.096-5.141v-18.080l19.096 5.134v18.087z"></path>
<path fill="#afb1b8" d="M9.176 1.148l16.71 4.494-7.103 6.734-16.71-4.501 7.103-6.727zM8.863 0l-8.863 8.39 19.096 5.134 8.863-8.39-19.096-5.134z"></path>
<path fill="#afb1b8" d="M20.174 30.588l7.784-7.374-7.784-2.094v9.468z"></path>
</svg>
