<!-- Generated by IcoMoon.io -->
<svg version="1.1" xmlns="http://www.w3.org/2000/svg" width="31" height="32" viewBox="0 0 31 32">
<title>third</title>
<path fill="#afb1b8" d="M4.718 31.1c0.015 0 0.022 0 0.030 0.007 0.015 0.007 0.022 0.007 0.030 0.015l0.156 0.164c-0.119 0.127-0.268 0.231-0.432 0.305-0.194 0.074-0.402 0.112-0.61 0.112-0.201 0-0.394-0.037-0.573-0.104-0.171-0.067-0.313-0.164-0.439-0.29-0.119-0.127-0.216-0.283-0.275-0.447-0.067-0.179-0.104-0.372-0.097-0.566-0.007-0.201 0.030-0.394 0.104-0.573 0.067-0.171 0.164-0.32 0.298-0.447 0.127-0.127 0.283-0.223 0.454-0.29 0.194-0.067 0.394-0.104 0.595-0.104 0.186 0 0.372 0.030 0.551 0.097 0.149 0.060 0.29 0.149 0.409 0.253l-0.127 0.171c-0.007 0.015-0.022 0.022-0.037 0.030-0.015 0.015-0.030 0.015-0.052 0.015-0.015 0-0.037-0.007-0.052-0.015l-0.067-0.045-0.097-0.060c-0.045-0.022-0.082-0.045-0.127-0.060-0.060-0.015-0.119-0.037-0.179-0.045-0.074-0.015-0.149-0.022-0.223-0.015-0.149-0.007-0.29 0.022-0.424 0.074-0.127 0.045-0.246 0.119-0.335 0.216-0.097 0.097-0.171 0.216-0.216 0.342-0.052 0.141-0.082 0.298-0.082 0.454s0.022 0.313 0.082 0.454c0.045 0.127 0.119 0.246 0.208 0.342s0.201 0.164 0.32 0.216c0.127 0.045 0.26 0.074 0.394 0.067 0.074 0.007 0.156 0 0.231-0.007 0.127-0.015 0.253-0.060 0.357-0.127 0.052-0.030 0.104-0.074 0.149-0.112 0.022-0.022 0.045-0.030 0.074-0.030z"></path>
<path fill="#afb1b8" d="M9.139 30.296c0.007 0.194-0.030 0.38-0.104 0.566-0.060 0.164-0.156 0.313-0.283 0.439-0.134 0.127-0.283 0.223-0.454 0.29-0.38 0.134-0.789 0.134-1.168 0-0.164-0.067-0.32-0.164-0.447-0.29s-0.223-0.283-0.29-0.447c-0.141-0.365-0.141-0.767 0-1.139 0.067-0.164 0.164-0.313 0.29-0.447 0.127-0.119 0.283-0.216 0.447-0.275 0.38-0.141 0.789-0.141 1.168 0 0.171 0.067 0.32 0.164 0.447 0.29s0.231 0.275 0.29 0.439c0.074 0.179 0.112 0.372 0.104 0.573zM8.737 30.296c0.007-0.156-0.022-0.313-0.074-0.461-0.037-0.127-0.112-0.238-0.201-0.342-0.089-0.089-0.201-0.164-0.327-0.208-0.268-0.104-0.573-0.104-0.841 0-0.127 0.045-0.238 0.119-0.327 0.208-0.089 0.104-0.164 0.216-0.208 0.342-0.097 0.298-0.097 0.618 0 0.915 0.045 0.127 0.119 0.238 0.208 0.342 0.089 0.089 0.201 0.164 0.327 0.208 0.268 0.097 0.573 0.097 0.841 0 0.127-0.045 0.238-0.119 0.327-0.208 0.089-0.104 0.164-0.216 0.201-0.342 0.052-0.149 0.082-0.305 0.074-0.454z"></path>
<path fill="#afb1b8" d="M12.16 30.772l0.037 0.104c0.015-0.037 0.030-0.074 0.045-0.104 0.015-0.037 0.030-0.067 0.052-0.104l0.975-1.689c0.022-0.030 0.037-0.052 0.052-0.052 0.030-0.007 0.060-0.015 0.082-0.015h0.29v2.761h-0.342v-2.032c0-0.022 0-0.052 0-0.082s0-0.067 0-0.097l-0.982 1.719c-0.015 0.022-0.030 0.045-0.060 0.060-0.022 0.015-0.052 0.030-0.082 0.022h-0.060c-0.030 0.007-0.060-0.007-0.082-0.022s-0.045-0.037-0.060-0.060l-1.012-1.727c0 0.030 0 0.060 0 0.097 0 0.030 0 0.060 0 0.089v2.024h-0.327v-2.753h0.29c0.022 0 0.052 0.007 0.074 0.015 0.030 0.007 0.045 0.030 0.060 0.052l0.997 1.697c0.022 0.030 0.037 0.060 0.052 0.097z"></path>
<path fill="#afb1b8" d="M15.836 30.631v1.034h-0.38v-2.753h0.848c0.164 0 0.327 0.022 0.484 0.060 0.119 0.037 0.238 0.097 0.335 0.171 0.082 0.074 0.149 0.171 0.194 0.275 0.045 0.112 0.067 0.231 0.060 0.35 0.007 0.119-0.022 0.238-0.067 0.35s-0.119 0.201-0.208 0.275c-0.097 0.082-0.216 0.149-0.342 0.186-0.149 0.045-0.305 0.067-0.461 0.060l-0.461-0.007zM15.836 30.34h0.461c0.104 0 0.201-0.015 0.298-0.045 0.082-0.022 0.156-0.067 0.216-0.119s0.104-0.112 0.134-0.179c0.030-0.074 0.045-0.156 0.045-0.231 0-0.082-0.007-0.156-0.037-0.231-0.030-0.067-0.074-0.134-0.134-0.186-0.149-0.104-0.335-0.164-0.521-0.149h-0.461v1.139z"></path>
<path fill="#afb1b8" d="M20.986 31.673h-0.305c-0.030 0-0.060-0.007-0.082-0.030-0.022-0.015-0.045-0.037-0.052-0.060l-0.26-0.67h-1.31l-0.268 0.67c-0.007 0.022-0.030 0.045-0.045 0.060-0.030 0.015-0.060 0.030-0.089 0.030h-0.305l1.154-2.761h0.394l1.168 2.761zM19.088 30.646h1.079l-0.454-1.124c-0.037-0.082-0.067-0.171-0.089-0.253l-0.045 0.141c-0.007 0.045-0.030 0.082-0.037 0.119l-0.454 1.116z"></path>
<path fill="#afb1b8" d="M22.638 28.927c0.022 0.015 0.045 0.030 0.060 0.052l1.674 2.076c0-0.037 0-0.067 0-0.097s0-0.067 0-0.089v-1.957h0.342v2.761h-0.194c-0.030 0-0.052-0.007-0.082-0.022-0.022-0.007-0.045-0.030-0.060-0.045l-1.674-2.076c0.007 0.030 0.007 0.060 0 0.089 0 0.037 0 0.060 0 0.089v1.965h-0.342v-2.761h0.208c0.022 0 0.045 0.007 0.067 0.015z"></path>
<path fill="#afb1b8" d="M27.535 30.571v1.094h-0.387v-1.094l-1.057-1.66h0.342c0.030 0 0.060 0.007 0.082 0.030 0.022 0.015 0.037 0.037 0.052 0.060l0.662 1.072c0.030 0.045 0.052 0.082 0.067 0.127 0.022 0.037 0.037 0.074 0.052 0.119l0.052-0.119c0.015-0.045 0.037-0.089 0.060-0.127l0.655-1.079c0.015-0.022 0.030-0.045 0.052-0.060 0.022-0.022 0.052-0.030 0.082-0.030h0.342l-1.057 1.667z"></path>
<path fill="#afb1b8" d="M11.966 24.29c0.164 0.022 0.335 0.037 0.506 0.052 2.582-1.101 4.77-2.902 6.281-5.18 1.518-2.277 2.292-4.934 2.233-7.628l-2.85-2.709c0.58 2.865 0.313 5.834-0.781 8.566-1.087 2.731-2.954 5.12-5.388 6.899z"></path>
<path fill="#afb1b8" d="M10.954 24.164l0.074 0.015c2.597-1.771 4.584-4.249 5.693-7.107s1.287-5.961 0.521-8.923l-4.056-3.862c1.645 3.178 2.307 6.727 1.905 10.247-0.394 3.52-1.831 6.861-4.138 9.63z"></path>
<path fill="#afb1b8" d="M24.7 14.72c-0.685 2.962-2.359 5.633-4.77 7.613-0.7 0.588-1.459 1.101-2.262 1.555 1.957-0.551 3.758-1.526 5.269-2.843 1.503-1.317 2.672-2.947 3.408-4.763l-1.645-1.563z"></path>
<path fill="#afb1b8" d="M24.052 14.288l-2.337-2.233c-0.045 2.545-0.804 5.023-2.195 7.196-1.399 2.166-3.379 3.944-5.73 5.135h0.007c0.528 0 1.049-0.030 1.57-0.089 2.203-0.856 4.153-2.218 5.671-3.966 1.511-1.749 2.553-3.825 3.014-6.043z"></path>
<path fill="#afb1b8" d="M11.289 2.664l-2.791-2.664c-2.5 0.915-4.644 2.53-6.162 4.629-1.518 2.106-2.329 4.592-2.337 7.144v0c0.007 2.813 1.005 5.552 2.828 7.769s4.368 3.795 7.241 4.473c2.56-2.969 4.056-6.646 4.279-10.486s-0.848-7.65-3.059-10.865z"></path>
<path fill="#afb1b8" d="M30.512 13.872c-0.015-3.341-1.414-6.541-3.892-8.908-2.486-2.366-5.842-3.699-9.354-3.706-1.622 0-3.23 0.283-4.74 0.841l17.101 16.29c0.58-1.436 0.886-2.969 0.886-4.517z"></path>
</svg>
